<svg id="Layer_1" data-name="Layer 1" xmlns="http://www.w3.org/2000/svg" viewBox="0 0 933.38 1788.78">
  <defs>
    <style>
      .cls-1, .cls-10, .cls-12, .cls-17, .cls-20, .cls-23, .cls-3, .cls-4, .cls-5 {
        fill: none;
      }

      .cls-1, .cls-18, .cls-20, .cls-7 {
        stroke: #ee8922;
      }

      .cls-1, .cls-12, .cls-17, .cls-23, .cls-3, .cls-4, .cls-5, .cls-7 {
        stroke-width: 6px;
      }

      .cls-1, .cls-12, .cls-17, .cls-23 {
        stroke-dasharray: 12;
      }

      .cls-2 {
        fill: #ddd;
      }

      .cls-3, .cls-4, .cls-5 {
        stroke: #ee8d22;
      }

      .cls-4 {
        stroke-dasharray: 12.05 12.05;
      }

      .cls-5 {
        stroke-dasharray: 14.57 14.57;
      }

      .cls-11, .cls-14, .cls-15, .cls-19, .cls-20, .cls-21, .cls-24, .cls-6 {
        isolation: isolate;
      }

      .cls-15, .cls-6 {
        font-size: 20px;
      }

      .cls-24, .cls-6 {
        font-family: Courier-Bold, Courier;
      }

      .cls-11, .cls-15, .cls-21, .cls-24, .cls-6 {
        font-weight: 700;
      }

      .cls-18, .cls-19, .cls-7 {
        fill: #ee8922;
      }

      .cls-11, .cls-15, .cls-21, .cls-8 {
        fill: #fff;
      }

      .cls-8 {
        stroke: #fff;
      }

      .cls-9 {
        fill: #2a3282;
      }

      .cls-23, .cls-9 {
        stroke: #000;
      }

      .cls-18, .cls-9 {
        stroke-opacity: 0;
      }

      .cls-11, .cls-24 {
        font-size: 21px;
      }

      .cls-11, .cls-15, .cls-21 {
        font-family: Arial-BoldMT, Arial;
      }

      .cls-12 {
        stroke: #97999c;
      }

      .cls-13, .cls-16 {
        fill: #999;
        stroke: #999;
      }

      .cls-16 {
        stroke-width: 0.5px;
      }

      .cls-17 {
        stroke: #c92d3a;
      }

      .cls-18 {
        stroke-width: 0.25px;
      }

      .cls-19, .cls-20 {
        font-size: 26px;
        font-family: Courier;
      }

      .cls-21 {
        font-size: 16px;
      }

      .cls-22 {
        fill: #97999c;
      }

      .cls-24 {
        fill: #3fff4f;
      }
    </style>
  </defs>
  <title>noexecute_usecase</title>
  <g>
    <line class="cls-1" x1="252.41" y1="75.07" x2="365.49" y2="75.07"/>
    <line class="cls-1" x1="368.3" y1="75.07" x2="366.49" y2="603.62"/>
  </g>
  <g>
    <rect class="cls-2" x="3" y="530.12" width="848" height="55.72"/>
    <g>
      <polyline class="cls-3" points="851 579.84 851 585.84 844.19 585.84"/>
      <line class="cls-4" x1="830.52" y1="585.84" x2="16.65" y2="585.84"/>
      <polyline class="cls-3" points="9.81 585.84 3 585.84 3 579.84"/>
      <line class="cls-5" x1="3" y1="565.27" x2="3" y2="543.41"/>
      <polyline class="cls-3" points="3 536.12 3 530.12 9.81 530.12"/>
      <line class="cls-4" x1="23.48" y1="530.12" x2="837.35" y2="530.12"/>
      <polyline class="cls-3" points="844.19 530.12 851 530.12 851 536.12"/>
      <line class="cls-5" x1="851" y1="550.69" x2="851" y2="572.55"/>
    </g>
  </g>
  <text class="cls-6" transform="translate(27 563.93)">refchef-cook --append --new new.yaml --git commit --config cfg.yaml</text>
  <path class="cls-7" d="M295.46,74.87l27-14V88.94Zm21-.8-1.56.8,1.57.84Z" transform="translate(0 0)"/>
  <g>
    <rect class="cls-8" x="338.05" y="361.72" width="63.97" height="116.99"/>
    <path class="cls-9" d="M351.32,388.33h31.91v7.32h-31.9v-7.32Zm0,14.09h31.91v7.23h-31.9v-7.23Zm0,13.81h31.91v7.26h-31.9Z" transform="translate(0 0)"/>
    <path class="cls-9" d="M387.55,361.72H342.63c-5.23,0-9.5,5.31-9.5,11.78v65c0,6.46,4.28,11.79,9.51,11.79h49.82c5.29,0,9.56-5.32,9.56-11.79V379.34Zm4.91,81.47H342.63c-2,0-3.65-1.94-3.65-4.69v-65c0-2.48,1.67-4.52,3.66-4.52h41.89v14.61H396.1v55.06c0,2.58-1.58,4.52-3.65,4.52Z" transform="translate(0 0)"/>
    <text class="cls-6" transform="translate(311.62 470.15)">master.yaml</text>
  </g>
  <path class="cls-9" d="M349.68,127.47H325.93a15.87,15.87,0,0,0-10.57,4.32l-6,6.07A15.48,15.48,0,0,0,305,148.44v72.4a9.51,9.51,0,0,0,9.5,9.46h101a9.58,9.58,0,0,0,9.48-9.47V154.09a9.55,9.55,0,0,0-9.47-9.46H373a5.62,5.62,0,0,1-2.64-1.44l-9.73-11.1a16.32,16.32,0,0,0-10.92-4.63Z" transform="translate(0 0)"/>
  <path class="cls-10" d="M305,168.89H425v60H305Z" transform="translate(0 0)"/>
  <text class="cls-11" transform="translate(318.84 188.82)">git-folder</text>
  <path class="cls-7" d="M366.77,261l14,27H352.71Zm.8,21-.8-1.56-.83,1.57Z" transform="translate(0 0)"/>
  <line class="cls-12" x1="590.34" y1="649.15" x2="590.34" y2="1000.47"/>
  <polyline class="cls-12" points="558.29 1045.11 433.32 1045.11 433.32 969.57"/>
  <polyline class="cls-12" points="458.7 940.83 333.73 940.83 333.73 847.99"/>
  <polyline class="cls-12" points="358.26 827.67 233.29 827.67 233.29 649.15"/>
  <line class="cls-12" x1="233.29" y1="651.15" x2="590.34" y2="651.15"/>
  <path class="cls-9" d="M221.3,670.58H197.55A15.87,15.87,0,0,0,187,674.9L181,681a15.48,15.48,0,0,0-4.32,10.58V764a9.51,9.51,0,0,0,9.5,9.46H287.23a9.58,9.58,0,0,0,9.48-9.47V697.2a9.55,9.55,0,0,0-9.47-9.46h-42.6A5.62,5.62,0,0,1,242,686.3l-9.77-11.1a16.32,16.32,0,0,0-10.92-4.63Z" transform="translate(0 0)"/>
  <path class="cls-13" d="M421.3,886.58H397.55A15.87,15.87,0,0,0,387,890.9L381,897a15.48,15.48,0,0,0-4.32,10.58V980a9.51,9.51,0,0,0,9.5,9.46H487.23a9.58,9.58,0,0,0,9.48-9.47V913.2a9.55,9.55,0,0,0-9.47-9.46h-42.6A5.62,5.62,0,0,1,442,902.3l-9.77-11.1a16.32,16.32,0,0,0-10.92-4.63Z" transform="translate(0 0)"/>
  <path class="cls-13" d="M321.3,777.58H297.55A15.87,15.87,0,0,0,287,781.9L281,788a15.48,15.48,0,0,0-4.32,10.58V871a9.51,9.51,0,0,0,9.5,9.46H387.23a9.58,9.58,0,0,0,9.48-9.47V804.2a9.55,9.55,0,0,0-9.47-9.46h-42.6A5.62,5.62,0,0,1,342,793.3l-9.77-11.1a16.32,16.32,0,0,0-10.92-4.63Z" transform="translate(0 0)"/>
  <path class="cls-10" d="M176.65,710.58h120v60h-120Z" transform="translate(0 0)"/>
  <g class="cls-14">
    <text class="cls-11" transform="translate(185.18 733.63)">reference-</text>
    <text class="cls-11" transform="translate(206.79 758.83)">folder</text>
  </g>
  <g class="cls-14">
    <text class="cls-11" transform="translate(288.18 834.05)">reference-</text>
    <text class="cls-11" transform="translate(315.6 859.25)">key1</text>
  </g>
  <text class="cls-11" transform="translate(398.15 947.05)">primary</text>
  <path class="cls-13" d="M757.89,817c19.27,5.38,31.74,17.79,31.74,32,0,16.27-16.61,30.2-39.67,33.78l-7.56,1.1H469.23c-31.74,0-57.43-17.51-57.43-38.6s25.74-38.65,57.43-38.65a37.76,37.76,0,0,1,6.8.41c9.45-10.2,25.72-16,43.84-16a72.17,72.17,0,0,1,14.36,1.42V791.1c0-25.1,29.85-45.09,67.26-45.09,25.69,0,49.49,10.48,60.45,26.2a87.12,87.12,0,0,1,31.73-5.79c35.9,0,65,19.57,65,43.57a15.56,15.56,0,0,1-.77,7Z" transform="translate(0 0)"/>
  <g class="cls-14">
    <text class="cls-15" transform="translate(434.13 837.14)">wget</text>
    <text class="cls-15" transform="translate(434.13 861.14)">ftp://ftp.someplace.org/reference1.fa</text>
  </g>
  <g>
    <g>
      <rect class="cls-8" x="565.04" y="1007.99" width="59.74" height="79"/>
      <path class="cls-13" d="M613.66,1000.75H568.74c-5.23,0-9.51,5.31-9.52,11.78l-.06,65c0,6.46,4.27,11.79,9.5,11.79l49.82,0c5.3,0,9.56-5.3,9.57-11.77l.06-59.17Zm4.83,81.47H568.66c-2,0-3.65-2-3.64-4.69l.06-65c0-2.48,1.67-4.52,3.66-4.52h41.89v14.64h11.6l-.06,55.09c0,2.58-1.59,4.52-3.65,4.51Z" transform="translate(0 0)"/>
      <text class="cls-6" transform="translate(511.51 1109.1)">reference1.fa</text>
    </g>
    <path class="cls-16" d="M574.05,1062.44a1.16,1.16,0,0,0,1,1.28h2.49a1.16,1.16,0,0,0,1.16-1,6.64,6.64,0,0,1,.25-1.32H601.7c.11.5.21,1,.25,1.32a1.16,1.16,0,0,0,1.17,1h2.35a1.16,1.16,0,0,0,1.16-1.14.76.76,0,0,0,0-.15,23.82,23.82,0,0,0-8.65-15.12,39.23,39.23,0,0,1-4.26,2.58c.45.33.83.68,1.24,1h-9.29a27.83,27.83,0,0,1,5.73-3.74c12.53-6.22,14.83-15.92,15.25-19.41a1.17,1.17,0,0,0-1-1.29h-2.49a1.16,1.16,0,0,0-1.16,1c-.05.36-.13.81-.25,1.32H579c-.12-.51-.2-1-.25-1.32a1.17,1.17,0,0,0-1.17-1h-2.33a1.17,1.17,0,0,0-1.17,1.17c0,.05,0,.09,0,.13.38,3.12,2.28,11.2,11.64,17.33C576.33,1051.24,574.43,1059.31,574.05,1062.44Zm16.29-20a28.51,28.51,0,0,1-4.68-3.17H595A27.31,27.31,0,0,1,590.34,1042.44Zm9.54-9a19.81,19.81,0,0,1-1.52,2.33h-16a17.33,17.33,0,0,1-1.53-2.33Zm-19.08,23.29a21.25,21.25,0,0,1,1.53-2.33h16a21.33,21.33,0,0,1,1.54,2.33Z" transform="translate(0 0)"/>
  </g>
  <path class="cls-13" d="M590.32,724.07l-14-27h28.07Zm-.8-21,.8,1.56.83-1.57Z" transform="translate(0 0)"/>
  <path class="cls-13" d="M589.49,960.89l-14-27h28.08Zm-.8-21,.8,1.56.84-1.57Z" transform="translate(0 0)"/>
  <path class="cls-13" d="M272.06,650l27-14v28.08Zm21-.81-1.56.81,1.57.83Z" transform="translate(0 0)"/>
  <path class="cls-13" d="M478.1,651.17l-27,14V637.11Zm-21,.8,1.56-.8-1.57-.83Z" transform="translate(0 0)"/>
  <path class="cls-17" d="M368.31-72.91" transform="translate(0 0)"/>
  <path class="cls-1" d="M368.31,75.07" transform="translate(0 0)"/>
  <path class="cls-13" d="M484.09,1167.15l-27,14v-28.07Zm-21,.8,1.56-.8-1.57-.83Z" transform="translate(0 0)"/>
  <line class="cls-12" x1="366.5" y1="606.62" x2="366.47" y2="652.99"/>
  <g>
    <rect class="cls-8" x="592.66" y="363" width="63.97" height="116.99"/>
    <path class="cls-9" d="M605.93,389.65h31.9V397h-31.9Zm0,14.09h31.9V411h-31.9v-7.26Zm0,13.81h31.9v7.26h-31.9Z" transform="translate(0 0)"/>
    <path class="cls-9" d="M642.16,363H597.23c-5.24,0-9.51,5.31-9.51,11.78v65c0,6.46,4.28,11.79,9.52,11.79h49.81c5.3,0,9.56-5.32,9.56-11.79V380.65Zm4.91,81.47H597.23c-2,0-3.65-1.94-3.65-4.69v-65c0-2.48,1.66-4.52,3.66-4.52h41.89v14.61h11.56V440c0,2.58-1.58,4.52-3.65,4.52Z" transform="translate(0 0)"/>
    <text class="cls-6" transform="translate(576.23 471.43)">new.yaml</text>
  </g>
  <line class="cls-1" x1="401.44" y1="406.81" x2="587.74" y2="406.81"/>
  <path class="cls-7" d="M443.64,406.78l27-14v28.07Zm21-.8-1.56.8,1.57.84Z" transform="translate(0 0)"/>
  <path class="cls-7" d="M490.33,407.26l27-14v28.08Zm21-.8-1.56.8,1.57.83Z" transform="translate(0 0)"/>
  <path class="cls-18" d="M247,70.34,210.23,34.59a5.33,5.33,0,0,0-7.32,0l-8.07,7.65,9.58,9.26a6.56,6.56,0,0,1,2.28-.4,6.29,6.29,0,0,1,6.4,6.18h0a6.58,6.58,0,0,1-.42,2.28l9.33,9a7.06,7.06,0,0,1,2.28-.4,6.22,6.22,0,1,1-6.4,6.18,5.94,5.94,0,0,1,.43-2.2l-8.74-8.44V85.8a6.15,6.15,0,0,1,3.54,5.44,6.29,6.29,0,0,1-6.4,6.18h0a6.34,6.34,0,0,1-6.47-6.18,6.27,6.27,0,0,1,4.2-5.85V62.89a6,6,0,0,1-4.2-5.78,8.24,8.24,0,0,1,.42-2.2l-9.44-9.26L166,70.35a4.68,4.68,0,0,0-.39,6.61,3.59,3.59,0,0,0,.39.39l36.75,35.5a5,5,0,0,0,7.14.09l.09-.09,36.75-35.5a4.51,4.51,0,0,0,.9-6.31,4.64,4.64,0,0,0-.64-.69Z" transform="translate(0 0)"/>
  <text class="cls-19" transform="translate(114.32 21.03)">--git commit</text>
  <text class="cls-20" transform="translate(114.32 21.03)">--git commit</text>
  <g class="cls-14">
    <text class="cls-19" transform="translate(167.5 134.85)">local</text>
    <text class="cls-20" transform="translate(167.5 134.85)">local</text>
    <text class="cls-19" transform="translate(128.49 166.05)">repository</text>
    <text class="cls-20" transform="translate(128.49 166.05)">repository</text>
  </g>
  <line class="cls-12" x1="723.12" y1="1167.13" x2="724.77" y2="1492.84"/>
  <polyline class="cls-12" points="703.84 1526.11 437.66 1526.11 437.66 1476.92"/>
  <polyline class="cls-12" points="458.63 1432.27 333.66 1432.27 333.66 1339.43"/>
  <line class="cls-12" x1="233.29" y1="1167.13" x2="723.12" y2="1167.13"/>
  <path class="cls-13" d="M422.3,1374.87H398.55a15.87,15.87,0,0,0-10.57,4.32l-6,6.07a15.48,15.48,0,0,0-4.32,10.58v72.4a9.51,9.51,0,0,0,9.5,9.46H488.23a9.58,9.58,0,0,0,9.48-9.47v-66.74a9.55,9.55,0,0,0-9.47-9.46h-42.6a5.62,5.62,0,0,1-2.64-1.44l-9.73-11.1a16.32,16.32,0,0,0-10.92-4.63Z" transform="translate(0 0)"/>
  <path class="cls-13" d="M323.62,1262H299.87a15.87,15.87,0,0,0-10.57,4.32l-6,6.07A15.48,15.48,0,0,0,279,1283v72.4a9.51,9.51,0,0,0,9.5,9.46h101a9.58,9.58,0,0,0,9.48-9.47v-66.72a9.55,9.55,0,0,0-9.47-9.46h-42.6a5.62,5.62,0,0,1-2.64-1.44l-9.73-11.1A16.32,16.32,0,0,0,323.6,1262Z" transform="translate(0 0)"/>
  <g class="cls-14">
    <text class="cls-11" transform="translate(290.49 1318.48)">reference-</text>
    <text class="cls-11" transform="translate(317.91 1343.68)">key2</text>
  </g>
  <text class="cls-11" transform="translate(399.14 1440.88)">primary</text>
  <g class="cls-14">
    <text class="cls-21" transform="translate(537.96 1360.86)"><tspan xml:space="preserve">      commands:</tspan></text>
    <text class="cls-21" transform="translate(537.96 1380.06)"><tspan xml:space="preserve">      - wget ftp://ftp.someplace.org/reference2.fa</tspan></text>
  </g>
  <g>
    <rect class="cls-8" x="695.77" y="1484.2" width="59.74" height="79"/>
    <path class="cls-9" d="M744.38,1477H699.47c-5.24,0-9.52,5.31-9.52,11.78l-.07,65c0,6.46,4.27,11.79,9.51,11.79l49.81,0c5.3,0,9.57-5.3,9.57-11.77l.06-59.17Zm4.83,81.48H699.39c-2,0-3.65-1.94-3.65-4.69l.06-65c0-2.48,1.67-4.52,3.67-4.52h41.89v14.61h11.56v55.09c0,2.58-1.59,4.52-3.66,4.51Z" transform="translate(0 0)"/>
    <text class="cls-6" transform="translate(642.23 1585.31)">reference2.fa</text>
  </g>
  <path class="cls-13" d="M724.75,1242.43l-14-27h28.08Zm-.8-21,.8,1.56.83-1.57Z" transform="translate(0 0)"/>
  <path class="cls-13" d="M723.92,1453.25l-14-27H738Zm-.8-21,.8,1.56.83-1.57Z" transform="translate(0 0)"/>
  <line class="cls-12" x1="232.72" y1="1317.18" x2="276.65" y2="1317.18"/>
  <line class="cls-12" x1="233.29" y1="846.42" x2="233.29" y2="1317.18"/>
  <path class="cls-22" d="M233.75,1239.43l-14-27h28.08Zm-.8-21,.8,1.56.83-1.57Z" transform="translate(0 0)"/>
  <path class="cls-13" d="M888.66,1336.42c19.27,5.38,31.74,17.79,31.74,32,0,16.27-16.61,30.2-39.68,33.79l-7.55,1.1H600c-31.73,0-57.42-17.51-57.42-38.61s25.72-38.61,57.44-38.61a36.88,36.88,0,0,1,6.8.42c9.45-10.21,25.72-16,43.84-16a72.13,72.13,0,0,1,14.36,1.38v-1.38c0-25.09,29.85-45.09,67.25-45.09,25.7,0,49.5,10.48,60.45,26.2a87.59,87.59,0,0,1,31.74-5.79c35.9,0,65,19.58,65,43.57a15.56,15.56,0,0,1-.77,7Z" transform="translate(0 0)"/>
  <g class="cls-14">
    <text class="cls-15" transform="translate(564.9 1356.54)">wget</text>
    <text class="cls-15" transform="translate(564.9 1380.54)">ftp://ftp.someplace.org/reference2.fa</text>
  </g>
  <text class="cls-19" transform="translate(470.6 325.98)">--new new.yaml</text>
  <text class="cls-20" transform="translate(470.6 325.98)">--new new.yaml</text>
  <path d="M708,1543.43a1.17,1.17,0,0,0,1,1.29h2.48a1.16,1.16,0,0,0,1.16-1,6.69,6.69,0,0,1,.25-1.31h22.73a11.64,11.64,0,0,1,.25,1.31,1.16,1.16,0,0,0,1.17,1h2.35a1.17,1.17,0,0,0,1.17-1.17s0-.09,0-.13a23.86,23.86,0,0,0-8.66-15.11,37.5,37.5,0,0,1-4.25,2.57c.45.34.83.69,1.23,1h-9.28a28.07,28.07,0,0,1,5.72-3.75c12.53-6.22,14.83-15.92,15.25-19.41a1.16,1.16,0,0,0-1-1.28h-2.49a1.18,1.18,0,0,0-1.17,1c-.05.36-.13.81-.25,1.32H713c-.12-.51-.2-1-.25-1.32a1.16,1.16,0,0,0-1.16-1h-2.32a1.18,1.18,0,0,0-1.18,1.16c0,.05,0,.09,0,.13.38,3.13,2.28,11.21,11.64,17.33C710.32,1532.23,708.41,1540.31,708,1543.43Zm16.3-20a26.56,26.56,0,0,1-4.68-3.17H729A26.85,26.85,0,0,1,724.33,1523.43Zm9.54-9a21.25,21.25,0,0,1-1.53,2.33h-16a21.25,21.25,0,0,1-1.53-2.33Zm-19.09,23.29a21.25,21.25,0,0,1,1.53-2.33h16a18.77,18.77,0,0,1,1.54,2.33Z" transform="translate(0 0)"/>
  <path class="cls-13" d="M421.3,1685.45H397.55a15.87,15.87,0,0,0-10.57,4.32l-6,6.07a15.48,15.48,0,0,0-4.32,10.58v72.4a9.51,9.51,0,0,0,9.5,9.46H487.23a9.58,9.58,0,0,0,9.48-9.47v-66.74a9.57,9.57,0,0,0-9.48-9.42h-42.6a5.62,5.62,0,0,1-2.64-1.44l-9.73-11.1a16.32,16.32,0,0,0-10.92-4.63Z" transform="translate(0 0)"/>
  <text class="cls-11" transform="translate(407.5 1745.91)">folder</text>
  <line class="cls-23" x1="723.93" y1="1602.36" x2="723.93" y2="1750.29"/>
  <line class="cls-23" x1="512.88" y1="1748.09" x2="723.12" y2="1748.09"/>
  <rect x="480.66" y="1639.31" width="452.72" height="48.13"/>
  <text class="cls-24" transform="translate(500.09 1669.37)">bash: cp ~/folder/reference2.fa .</text>
  <path d="M623.79,1748.11l-27,14v-28.06Zm-21,.8,1.56-.8-1.57-.83Z" transform="translate(0 0)"/>
</svg>
