<?xml version="1.0" encoding="utf-8"?>
<!-- Generator: Adobe Illustrator 23.0.6, SVG Export Plug-In . SVG Version: 6.00 Build 0)  -->
<svg version="1.1" id="Layer_1" xmlns="http://www.w3.org/2000/svg" xmlns:xlink="http://www.w3.org/1999/xlink" x="0px" y="0px"
	 viewBox="0 0 842.9 1453.2" style="enable-background:new 0 0 842.9 1453.2;" xml:space="preserve">
<style type="text/css">
	.st0{fill:none;stroke:#000000;stroke-width:25;stroke-miterlimit:10;}
	.st1{fill:#FFFFFF;}
	.st2{fill:none;stroke:#000000;stroke-width:6;stroke-miterlimit:10;}
	.st3{fill:none;stroke:#000000;stroke-width:6;stroke-miterlimit:10;stroke-dasharray:12.2387,12.2387;}
	.st4{fill:none;stroke:#000000;stroke-width:6;stroke-miterlimit:10;stroke-dasharray:11.9938,11.9938;}
	.st5{fill:#231F20;}
	.st6{fill:#CCCCCC;}
	.st7{enable-background:new    ;}
	.st8{font-family:'Arial-BoldMT';}
	.st9{font-size:24px;}
	.st10{font-size:53px;}
	.st11{fill:none;}
	.st12{font-family:'Courier';}
	.st13{font-size:29px;}
	.st14{fill:none;stroke:#000000;stroke-width:6;stroke-miterlimit:10;stroke-dasharray:11.7088,11.7088;}
</style>
<g>
	<g>
		<polyline class="st0" points="577,220.3 577,88.6 439.2,88.6 		"/>
		<g>
			<polygon points="601.9,213 577,256.2 552,213 			"/>
		</g>
	</g>
</g>
<g>
	<rect x="454.9" y="131.7" class="st1" width="244.5" height="48"/>
	<g>
		<polyline class="st2" points="699.5,173.7 699.5,179.7 693.5,179.7 		"/>
		<line class="st3" x1="681.2" y1="179.7" x2="467" y2="179.7"/>
		<polyline class="st2" points="460.9,179.7 454.9,179.7 454.9,173.7 		"/>
		<line class="st4" x1="454.9" y1="161.7" x2="454.9" y2="143.7"/>
		<polyline class="st2" points="454.9,137.7 454.9,131.7 460.9,131.7 		"/>
		<line class="st3" x1="473.2" y1="131.7" x2="687.3" y2="131.7"/>
		<polyline class="st2" points="693.5,131.7 699.5,131.7 699.5,137.7 		"/>
		<line class="st4" x1="699.5" y1="149.7" x2="699.5" y2="167.7"/>
	</g>
</g>
<g>
	<line class="st5" x1="400.6" y1="398.8" x2="400.6" y2="542.9"/>
	<g>
		<line class="st0" x1="400.6" y1="398.8" x2="400.6" y2="507"/>
		<g>
			<polygon points="375.6,499.7 400.6,542.9 425.5,499.7 			"/>
		</g>
	</g>
</g>
<g>
	<rect x="278.3" y="422.7" class="st1" width="244.5" height="48"/>
	<g>
		<polyline class="st2" points="522.8,464.7 522.8,470.7 516.8,470.7 		"/>
		<line class="st3" x1="504.6" y1="470.7" x2="290.4" y2="470.7"/>
		<polyline class="st2" points="284.3,470.7 278.3,470.7 278.3,464.7 		"/>
		<line class="st4" x1="278.3" y1="452.7" x2="278.3" y2="434.7"/>
		<polyline class="st2" points="278.3,428.7 278.3,422.7 284.3,422.7 		"/>
		<line class="st3" x1="296.5" y1="422.7" x2="510.7" y2="422.7"/>
		<polyline class="st2" points="516.8,422.7 522.8,422.7 522.8,428.7 		"/>
		<line class="st4" x1="522.8" y1="440.7" x2="522.8" y2="458.7"/>
	</g>
</g>
<path class="st6" d="M537.2,911.6H263.9c-6.6,0-12-5.4-12-11.9V554.8c0-6.6,5.4-11.9,12-11.9h273.3c6.6,0,12,5.4,12,11.9v344.9
	C549.2,906.2,543.8,911.6,537.2,911.6z"/>
<circle class="st1" cx="400.6" cy="845.9" r="40.9"/>
<rect x="369.5" y="634" class="st1" width="62.2" height="50.8"/>
<text transform="matrix(1 0 0 1 281.8877 581.5522)" class="st7"><tspan x="0" y="0" class="st8 st9">Download &amp; process</tspan><tspan x="0" y="28.8" class="st8 st9">references on disk</tspan></text>
<text transform="matrix(1 0 0 1 333.9564 768.9424)" class="st8 st9">Git version</text>
<text transform="matrix(1 0 0 1 309.4564 794.1425)" class="st8 st9">control of YAML</text>
<path d="M386.8,869.9c0,0.3-0.4,0.6-0.9,0.6c-0.6,0.1-1-0.2-1-0.6c0-0.3,0.4-0.6,0.9-0.6C386.3,869.2,386.8,869.5,386.8,869.9z
	 M381.5,869.1c-0.1,0.3,0.2,0.7,0.7,0.8c0.4,0.2,1,0,1.1-0.3s-0.2-0.7-0.7-0.9C382.1,868.6,381.6,868.7,381.5,869.1L381.5,869.1z
	 M389,868.8c-0.5,0.1-0.8,0.4-0.8,0.8c0.1,0.3,0.5,0.6,1,0.4c0.5-0.1,0.8-0.4,0.8-0.8C390,869,389.5,868.7,389,868.8z M400.2,803.6
	c-23.6,0-41.7,17.9-41.7,41.5c0,18.9,11.9,35,28.8,40.7c2.2,0.4,2.9-1,2.9-2.1c0-1.1-0.1-6.9-0.1-10.5c0,0-11.9,2.6-14.4-5.1
	c0,0-1.9-5-4.7-6.2c0,0-3.9-2.7,0.3-2.6c0,0,4.2,0.3,6.6,4.4c3.7,6.6,10,4.7,12.4,3.6c0.4-2.7,1.5-4.6,2.7-5.7
	c-9.5-1.1-19.1-2.4-19.1-18.8c0-4.7,1.3-7,4-10c-0.4-1.1-1.9-5.7,0.4-11.6c3.6-1.1,11.7,4.6,11.7,4.6c3.4-1,7.1-1.4,10.7-1.4
	s7.3,0.5,10.7,1.4c0,0,8.2-5.7,11.7-4.6c2.3,5.9,0.9,10.5,0.4,11.6c2.7,3,4.4,5.4,4.4,10c0,16.4-10,17.7-19.5,18.8
	c1.6,1.3,2.9,3.9,2.9,7.9c0,5.7-0.1,12.8-0.1,14.2c0,1.1,0.8,2.5,2.9,2.1c17-5.7,28.6-21.8,28.6-40.7
	C443,821.5,423.8,803.6,400.2,803.6z M375.1,862.3c-0.2,0.2-0.2,0.6,0.1,0.9s0.7,0.4,0.9,0.2c0.2-0.2,0.2-0.6-0.1-0.9
	C375.7,862.2,375.3,862.1,375.1,862.3z M373.2,860.9c-0.1,0.2,0.1,0.5,0.4,0.7c0.3,0.2,0.6,0.1,0.7-0.1c0.1-0.2-0.1-0.5-0.4-0.7
	C373.6,860.7,373.4,860.7,373.2,860.9z M378.8,867c-0.3,0.2-0.2,0.7,0.2,1.1c0.4,0.4,0.9,0.4,1.1,0.2c0.2-0.2,0.1-0.7-0.2-1.1
	C379.5,866.7,379,866.7,378.8,867z M376.8,864.5c-0.3,0.2-0.3,0.6,0,1c0.3,0.4,0.7,0.6,1,0.4s0.3-0.7,0-1.1
	C377.5,864.4,377.1,864.2,376.8,864.5L376.8,864.5z"/>
<path d="M431.7,634v6.3c0,5.6-13.9,10.2-31.1,10.2c-17.2,0-31.1-4.6-31.1-10.2V634c0-5.6,13.9-10.2,31.1-10.2
	C417.8,623.8,431.7,628.4,431.7,634z M431.7,648.3v14.3c0,5.6-13.9,10.2-31.1,10.2c-17.2,0-31.1-4.6-31.1-10.2v-14.3
	c6.7,4.6,18.9,6.7,31.1,6.7C412.8,655,425,652.9,431.7,648.3z M431.7,670.5v14.3c0,5.6-13.9,10.2-31.1,10.2
	c-17.2,0-31.1-4.6-31.1-10.2v-14.3c6.7,4.6,18.9,6.7,31.1,6.7C412.8,677.2,425,675.1,431.7,670.5z"/>
<path d="M569.9,289.6l-22.6,22.6c-1.1,1.1-2.9,1.1-4,0l-2.6-2.6c-1.1-1.1-1.1-2.9,0-3.9l17.9-18l-17.9-18c-1.1-1.1-1.1-2.9,0-3.9
	l2.6-2.6c1.1-1.1,2.9-1.1,4,0l22.6,22.6C571,286.7,571,288.5,569.9,289.6z M614.4,310.9v-3.7c0-1.5-1.3-2.8-2.8-2.8h-35.4
	c-1.5,0-2.8,1.3-2.8,2.8v3.7c0,1.5,1.3,2.8,2.8,2.8h35.4C613.1,313.7,614.4,312.4,614.4,310.9z"/>
<text transform="matrix(1 0 0 1 471.7115 342.5799)" class="st8 st9">See references via</text>
<text transform="matrix(1 0 0 1 493.9115 367.7799)" class="st8 st9">command line</text>
<path d="M725.8,791.5c-21.2-19.6-54.2-19.6-75.4,0c-0.8,0.7-0.8,2,0,2.8l4.1,4.1c0.7,0.7,1.9,0.7,2.7,0c17.5-16,44.4-16,61.9,0
	c0.8,0.7,1.9,0.7,2.7,0l4.1-4.1C726.7,793.5,726.6,792.3,725.8,791.5L725.8,791.5z M688.2,815.1c-4.2,0-7.7,3.4-7.7,7.7
	c0,4.2,3.4,7.7,7.7,7.7c4.3,0,7.7-3.4,7.7-7.7C695.8,818.6,692.4,815.1,688.2,815.1z M712.4,805.1c-13.8-12.2-34.7-12.2-48.5,0
	c-0.8,0.7-0.9,2-0.1,2.8l4.1,4.1c0.7,0.7,1.9,0.8,2.6,0.1c10-8.7,25.1-8.7,35.1,0c0.8,0.7,1.9,0.6,2.6-0.1l4.1-4.1
	C713.3,807.1,713.2,805.8,712.4,805.1z"/>
<text transform="matrix(1 0 0 1 582.7118 860.5908)" class="st8 st9">See references via</text>
<text transform="matrix(1 0 0 1 601.9118 885.7908)" class="st8 st9">table webpage</text>
<path class="st6" d="M426.2,398.8H152.9c-6.6,0-12-5.5-12-12.2V33.2c0-6.7,5.4-12.2,12-12.2h273.3c6.6,0,12,5.5,12,12.2v353.4
	C438.2,393.3,432.8,398.8,426.2,398.8z"/>
<g>
	<rect x="286.6" y="94.6" class="st1" width="48.9" height="10.2"/>
	<rect x="298.6" y="66" class="st1" width="10.2" height="48.9"/>
	<rect x="266.1" y="110.8" class="st1" width="47.2" height="47.2"/>
	<text transform="matrix(1 0 0 1 158.8938 54.3806)" class="st8 st9">YAML with provenance</text>
	<path d="M299.7,96.4V66.1h-44.6c-3,0-5.4,2.4-5.4,5.4V175c0,3,2.4,5.4,5.4,5.4h75c3,0,5.4-2.4,5.4-5.4v-73.2h-30.3
		C302.1,101.7,299.7,99.3,299.7,96.4z M314,149c0,1.5-1.2,2.7-2.7,2.7h-37.5c-1.5,0-2.7-1.2-2.7-2.7v-1.8c0-1.5,1.2-2.7,2.7-2.7
		h37.5c1.5,0,2.7,1.2,2.7,2.7V149z M314,134.8c0,1.5-1.2,2.7-2.7,2.7h-37.5c-1.5,0-2.7-1.2-2.7-2.7V133c0-1.5,1.2-2.7,2.7-2.7h37.5
		c1.5,0,2.7,1.2,2.7,2.7V134.8z M314,118.7v1.8c0,1.5-1.2,2.7-2.7,2.7h-37.5c-1.5,0-2.7-1.2-2.7-2.7v-1.8c0-1.5,1.2-2.7,2.7-2.7
		h37.5C312.8,116,314,117.2,314,118.7z M335.4,93.2v1.4h-28.6V66h1.4c1.4,0,2.8,0.6,3.8,1.6l21.8,21.9
		C334.8,90.5,335.4,91.8,335.4,93.2z"/>
</g>
<text transform="matrix(1 0 0 1 274.1 221.789)" class="st8 st10">+</text>
<g>
	<rect x="287.2" y="284.8" class="st1" width="48.9" height="10.2"/>
	<rect x="299.3" y="256.2" class="st1" width="10.2" height="48.9"/>
	<path d="M300.4,286.5v-30.3h-44.6c-3,0-5.4,2.4-5.4,5.4v103.5c0,3,2.4,5.4,5.4,5.4h75c3,0,5.4-2.4,5.4-5.4v-73.2h-30.3
		C302.8,291.9,300.4,289.5,300.4,286.5z M336.1,283.4v1.4h-28.6v-28.6h1.4c1.4,0,2.8,0.6,3.8,1.6l21.8,21.9
		C335.5,280.6,336.1,282,336.1,283.4z"/>
	<text transform="matrix(1 0 0 1 230.9168 245.4645)" class="st8 st9">Config file</text>
	<path class="st1" d="M314.7,333.4l-4.3-2.5c0.4-2.3,0.4-4.7,0-7l4.3-2.5c0.5-0.3,0.7-0.9,0.6-1.4c-1.1-3.6-3-6.8-5.5-9.4
		c-0.4-0.4-1-0.5-1.5-0.2l-4.3,2.5c-1.8-1.5-3.9-2.7-6.2-3.5v-4.9c0-0.6-0.4-1-1-1.2c-3.7-0.8-7.5-0.8-11.1,0c-0.6,0.1-1,0.6-1,1.2
		v4.9c-2.2,0.8-4.3,2-6.2,3.5l-4.3-2.5c-0.5-0.3-1.1-0.2-1.5,0.2c-2.5,2.7-4.4,5.9-5.5,9.4c-0.2,0.5,0.1,1.1,0.6,1.4l4.3,2.5
		c-0.4,2.3-0.4,4.7,0,7l-4.3,2.5c-0.5,0.3-0.7,0.9-0.6,1.4c1.1,3.6,3,6.8,5.5,9.4c0.4,0.4,1,0.5,1.5,0.2l4.3-2.5
		c1.8,1.5,3.9,2.7,6.2,3.5v4.9c0,0.6,0.4,1,1,1.2c3.7,0.8,7.5,0.8,11.1,0c0.6-0.1,1-0.6,1-1.2v-4.9c2.2-0.8,4.3-2,6.2-3.5l4.3,2.5
		c0.5,0.3,1.1,0.2,1.5-0.2c2.5-2.7,4.4-5.9,5.5-9.4C315.4,334.3,315.2,333.7,314.7,333.4z M291.3,335.4c-4.5,0-8.1-3.6-8.1-8
		s3.6-8,8.1-8s8.1,3.6,8.1,8S295.7,335.4,291.3,335.4z"/>
</g>
<line class="st11" x1="542.6" y1="407" x2="542.6" y2="441.8"/>
<line class="st11" x1="753.1" y1="204.4" x2="753.1" y2="239.2"/>
<text transform="matrix(1 0 0 1 385.0995 744.7634)" class="st8 st10">+</text>
<text transform="matrix(1 0 0 1 296.3592 455.03)" class="st5 st12 st13">refchef-cook</text>
<g>
	<g>
		<polyline class="st0" points="688,732.7 688,600.9 550.2,600.9 		"/>
		<g>
			<polygon points="712.9,725.4 688,768.6 663,725.4 			"/>
		</g>
	</g>
</g>
<text transform="matrix(1 0 0 1 472.8737 162.0191)" class="st5 st12 st13">refchef-menu</text>
<g>
	<rect x="558.7" y="648.8" class="st1" width="257.9" height="48"/>
	<g>
		<polyline class="st2" points="816.6,690.7 816.6,696.7 810.6,696.7 		"/>
		<line class="st14" x1="798.9" y1="696.7" x2="570.5" y2="696.7"/>
		<polyline class="st2" points="564.7,696.7 558.7,696.7 558.7,690.7 		"/>
		<line class="st4" x1="558.7" y1="678.7" x2="558.7" y2="660.8"/>
		<polyline class="st2" points="558.7,654.8 558.7,648.8 564.7,648.8 		"/>
		<line class="st14" x1="576.4" y1="648.8" x2="804.7" y2="648.8"/>
		<polyline class="st2" points="810.6,648.8 816.6,648.8 816.6,654.8 		"/>
		<line class="st4" x1="816.6" y1="666.8" x2="816.6" y2="684.7"/>
	</g>
</g>
<text transform="matrix(1 0 0 1 574.0256 681.0963)" class="st5 st12 st13">refchef-serve</text>
<g>
	<line class="st5" x1="181.6" y1="398.8" x2="181.6" y2="1056.7"/>
	<g>
		<line class="st0" x1="181.6" y1="398.8" x2="181.6" y2="1020.8"/>
		<g>
			<polygon points="156.6,1013.5 181.6,1056.7 206.5,1013.5 			"/>
		</g>
	</g>
</g>
<g>
	<rect x="59.3" y="936.5" class="st1" width="244.5" height="48"/>
	<g>
		<polyline class="st2" points="303.8,978.5 303.8,984.5 297.8,984.5 		"/>
		<line class="st3" x1="285.6" y1="984.5" x2="71.4" y2="984.5"/>
		<polyline class="st2" points="65.3,984.5 59.3,984.5 59.3,978.5 		"/>
		<line class="st4" x1="59.3" y1="966.5" x2="59.3" y2="948.5"/>
		<polyline class="st2" points="59.3,942.5 59.3,936.5 65.3,936.5 		"/>
		<line class="st3" x1="77.5" y1="936.5" x2="291.7" y2="936.5"/>
		<polyline class="st2" points="297.8,936.5 303.8,936.5 303.8,942.5 		"/>
		<line class="st4" x1="303.8" y1="954.5" x2="303.8" y2="972.5"/>
	</g>
</g>
<path class="st6" d="M318.2,1425.5H44.9c-6.6,0-12-5.4-12-11.9v-344.9c0-6.6,5.4-11.9,12-11.9h273.3c6.6,0,12,5.4,12,11.9v344.9
	C330.2,1420.1,324.8,1425.5,318.2,1425.5z"/>
<circle class="st1" cx="181.6" cy="1359.7" r="40.9"/>
<text transform="matrix(1 0 0 1 62.8877 1095.4045)" class="st7"><tspan x="0" y="0" class="st8 st9">Download &amp; process</tspan><tspan x="0" y="28.8" class="st8 st9">references on server</tspan></text>
<text transform="matrix(1 0 0 1 114.9565 1282.7948)" class="st8 st9">Git version</text>
<text transform="matrix(1 0 0 1 90.4565 1307.9948)" class="st8 st9">control of YAML</text>
<path d="M167.8,1383.8c0,0.3-0.4,0.6-0.9,0.6c-0.6,0.1-1-0.2-1-0.6c0-0.3,0.4-0.6,0.9-0.6C167.3,1383.1,167.8,1383.4,167.8,1383.8z
	 M162.5,1383c-0.1,0.3,0.2,0.7,0.7,0.8c0.4,0.2,1,0,1.1-0.3c0.1-0.3-0.2-0.7-0.7-0.9C163.1,1382.5,162.6,1382.6,162.5,1383
	L162.5,1383z M170,1382.7c-0.5,0.1-0.8,0.4-0.8,0.8c0.1,0.3,0.5,0.6,1,0.4c0.5-0.1,0.8-0.4,0.8-0.8
	C171,1382.9,170.5,1382.6,170,1382.7z M181.2,1317.5c-23.6,0-41.7,17.9-41.7,41.5c0,18.9,11.9,35,28.8,40.7c2.2,0.4,2.9-1,2.9-2.1
	c0-1.1-0.1-6.9-0.1-10.5c0,0-11.9,2.6-14.4-5.1c0,0-1.9-5-4.7-6.2c0,0-3.9-2.7,0.3-2.6c0,0,4.2,0.3,6.6,4.4c3.7,6.6,10,4.7,12.4,3.6
	c0.4-2.7,1.5-4.6,2.7-5.7c-9.5-1.1-19.1-2.4-19.1-18.8c0-4.7,1.3-7,4-10c-0.4-1.1-1.9-5.7,0.4-11.6c3.6-1.1,11.7,4.6,11.7,4.6
	c3.4-1,7.1-1.4,10.7-1.4s7.3,0.5,10.7,1.4c0,0,8.2-5.7,11.7-4.6c2.3,5.9,0.9,10.5,0.4,11.6c2.7,3,4.4,5.4,4.4,10
	c0,16.4-10,17.7-19.5,18.8c1.6,1.3,2.9,3.9,2.9,7.9c0,5.7-0.1,12.8-0.1,14.2c0,1.1,0.8,2.5,2.9,2.1c17-5.7,28.6-21.8,28.6-40.7
	C224,1335.4,204.8,1317.5,181.2,1317.5z M156.1,1376.2c-0.2,0.2-0.2,0.6,0.1,0.9c0.3,0.3,0.7,0.4,0.9,0.2s0.2-0.6-0.1-0.9
	C156.7,1376.1,156.3,1376,156.1,1376.2z M154.2,1374.8c-0.1,0.2,0.1,0.5,0.4,0.7c0.3,0.2,0.6,0.1,0.7-0.1c0.1-0.2-0.1-0.5-0.4-0.7
	C154.6,1374.6,154.4,1374.6,154.2,1374.8z M159.8,1380.9c-0.3,0.2-0.2,0.7,0.2,1.1c0.4,0.4,0.9,0.4,1.1,0.2c0.2-0.2,0.1-0.7-0.2-1.1
	C160.5,1380.6,160,1380.6,159.8,1380.9z M157.8,1378.4c-0.3,0.2-0.3,0.6,0,1s0.7,0.6,1,0.4c0.3-0.2,0.3-0.7,0-1.1
	C158.5,1378.3,158.1,1378.1,157.8,1378.4L157.8,1378.4z"/>
<path d="M506.8,1305.3c-21.2-19.6-54.2-19.6-75.4,0c-0.8,0.7-0.8,2,0,2.8l4.1,4.1c0.7,0.7,1.9,0.7,2.7,0c17.5-16,44.4-16,61.9,0
	c0.8,0.7,1.9,0.7,2.7,0l4.1-4.1C507.7,1307.3,507.6,1306.1,506.8,1305.3L506.8,1305.3z M469.2,1328.9c-4.2,0-7.7,3.4-7.7,7.7
	c0,4.2,3.4,7.7,7.7,7.7s7.7-3.4,7.7-7.7C476.8,1332.4,473.4,1328.9,469.2,1328.9z M493.4,1318.9c-13.8-12.2-34.7-12.2-48.5,0
	c-0.8,0.7-0.9,2-0.1,2.8l4.1,4.1c0.7,0.7,1.9,0.8,2.6,0.1c10-8.7,25.1-8.7,35.1,0c0.8,0.7,1.9,0.6,2.6-0.1l4.1-4.1
	C494.3,1320.9,494.2,1319.6,493.4,1318.9z"/>
<text transform="matrix(1 0 0 1 363.7118 1374.4431)" class="st8 st9">See references via</text>
<text transform="matrix(1 0 0 1 382.9118 1399.6432)" class="st8 st9">table webpage</text>
<line class="st11" x1="448.6" y1="920.9" x2="448.6" y2="955.7"/>
<text transform="matrix(1 0 0 1 166.0995 1258.6158)" class="st8 st10">+</text>
<text transform="matrix(1 0 0 1 77.3593 969.8824)" class="st5 st12 st13">refchef-cook</text>
<g>
	<g>
		<polyline class="st0" points="469,1246.5 469,1114.8 331.2,1114.8 		"/>
		<g>
			<polygon points="493.9,1239.2 469,1282.4 444,1239.2 			"/>
		</g>
	</g>
</g>
<g>
	<rect x="346.7" y="1162.6" class="st1" width="244.5" height="48"/>
	<g>
		<polyline class="st2" points="591.2,1204.6 591.2,1210.6 585.2,1210.6 		"/>
		<line class="st3" x1="573" y1="1210.6" x2="358.8" y2="1210.6"/>
		<polyline class="st2" points="352.7,1210.6 346.7,1210.6 346.7,1204.6 		"/>
		<line class="st4" x1="346.7" y1="1192.6" x2="346.7" y2="1174.6"/>
		<polyline class="st2" points="346.7,1168.6 346.7,1162.6 352.7,1162.6 		"/>
		<line class="st3" x1="364.9" y1="1162.6" x2="579.1" y2="1162.6"/>
		<polyline class="st2" points="585.2,1162.6 591.2,1162.6 591.2,1168.6 		"/>
		<line class="st4" x1="591.2" y1="1180.6" x2="591.2" y2="1198.6"/>
	</g>
</g>
<text transform="matrix(1 0 0 1 363.0255 1194.9486)" class="st5 st12 st13">refchef-view</text>
<g>
	<rect x="141.1" y="1148.9" class="st1" width="81" height="58.4"/>
	<path d="M217,1163h-70.8c-2.8,0-5.1-2.3-5.1-5.1v-10.1c0-2.8,2.3-5.1,5.1-5.1H217c2.8,0,5.1,2.3,5.1,5.1v10.1
		C222.1,1160.7,219.8,1163,217,1163z M209.4,1149.1c-2.1,0-3.8,1.7-3.8,3.8c0,2.1,1.7,3.8,3.8,3.8s3.8-1.7,3.8-3.8
		C213.2,1150.8,211.5,1149.1,209.4,1149.1z M199.3,1149.1c-2.1,0-3.8,1.7-3.8,3.8c0,2.1,1.7,3.8,3.8,3.8s3.8-1.7,3.8-3.8
		C203.1,1150.8,201.4,1149.1,199.3,1149.1z M217,1188.3h-70.8c-2.8,0-5.1-2.3-5.1-5.1v-10.1c0-2.8,2.3-5.1,5.1-5.1H217
		c2.8,0,5.1,2.3,5.1,5.1v10.1C222.1,1186,219.8,1188.3,217,1188.3z M209.4,1174.4c-2.1,0-3.8,1.7-3.8,3.8s1.7,3.8,3.8,3.8
		s3.8-1.7,3.8-3.8S211.5,1174.4,209.4,1174.4z M199.3,1174.4c-2.1,0-3.8,1.7-3.8,3.8s1.7,3.8,3.8,3.8s3.8-1.7,3.8-3.8
		S201.4,1174.4,199.3,1174.4z M217,1213.6h-70.8c-2.8,0-5.1-2.3-5.1-5.1v-10.1c0-2.8,2.3-5.1,5.1-5.1H217c2.8,0,5.1,2.3,5.1,5.1
		v10.1C222.1,1211.3,219.8,1213.6,217,1213.6z M209.4,1199.7c-2.1,0-3.8,1.7-3.8,3.8c0,2.1,1.7,3.8,3.8,3.8s3.8-1.7,3.8-3.8
		C213.2,1201.4,211.5,1199.7,209.4,1199.7z M199.3,1199.7c-2.1,0-3.8,1.7-3.8,3.8c0,2.1,1.7,3.8,3.8,3.8s3.8-1.7,3.8-3.8
		C203.1,1201.4,201.4,1199.7,199.3,1199.7z"/>
</g>
</svg>
