<svg id="Layer_1" data-name="Layer 1" xmlns="http://www.w3.org/2000/svg" viewBox="0 0 898.09 1254.66">
  <defs>
    <style>
      .cls-1, .cls-10, .cls-11, .cls-12, .cls-15, .cls-2, .cls-23, .cls-3, .cls-4, .cls-5, .cls-6, .cls-7, .cls-8 {
        fill: none;
      }

      .cls-1, .cls-14 {
        stroke: #000;
      }

      .cls-1, .cls-10, .cls-11, .cls-12, .cls-23, .cls-7, .cls-8 {
        stroke-width: 6px;
      }

      .cls-2 {
        stroke: #666;
      }

      .cls-2, .cls-3, .cls-4, .cls-5, .cls-6 {
        stroke-width: 9px;
      }

      .cls-3 {
        stroke: #3aa6dd;
      }

      .cls-4 {
        stroke: #ef8d22;
      }

      .cls-5 {
        stroke: #b391b5;
      }

      .cls-6 {
        stroke: #c92d39;
      }

      .cls-17, .cls-20, .cls-7 {
        stroke: #999;
      }

      .cls-23, .cls-7, .cls-8 {
        stroke-dasharray: 12;
      }

      .cls-10, .cls-11, .cls-12, .cls-19, .cls-21, .cls-8 {
        stroke: #46a7de;
      }

      .cls-9 {
        fill: #ddd;
      }

      .cls-11 {
        stroke-dasharray: 11.87 11.87;
      }

      .cls-12 {
        stroke-dasharray: 14.57 14.57;
      }

      .cls-13, .cls-24 {
        font-size: 20px;
      }

      .cls-13 {
        font-family: Courier-Bold, Courier;
      }

      .cls-13, .cls-16, .cls-22, .cls-24 {
        font-weight: 700;
      }

      .cls-14 {
        fill: #2a3282;
        stroke-opacity: 0;
      }

      .cls-16 {
        font-size: 21px;
      }

      .cls-16, .cls-18, .cls-22, .cls-24 {
        fill: #fff;
      }

      .cls-16, .cls-22, .cls-24 {
        font-family: Arial-BoldMT, Arial;
      }

      .cls-17, .cls-20 {
        fill: #999;
      }

      .cls-18 {
        stroke: #fff;
      }

      .cls-19, .cls-21 {
        fill: #46a7de;
      }

      .cls-20, .cls-21 {
        font-size: 26px;
        font-family: Courier;
      }

      .cls-22 {
        font-size: 16px;
      }

      .cls-23 {
        stroke: #c92d3a;
      }
    </style>
  </defs>
  <title>git_push_usecase</title>
  <path class="cls-1" d="M900.14,1329" transform="translate(-21.3 -9.78)"/>
  <path class="cls-1" d="M900.14,1329" transform="translate(-21.3 -9.78)"/>
  <path class="cls-1" d="M900.14,1329" transform="translate(-21.3 -9.78)"/>
  <path class="cls-1" d="M900.14,1329" transform="translate(-21.3 -9.78)"/>
  <path class="cls-2" d="M900.14,1329" transform="translate(-21.3 -9.78)"/>
  <path class="cls-2" d="M900.14,1329" transform="translate(-21.3 -9.78)"/>
  <path class="cls-2" d="M900.14,1329" transform="translate(-21.3 -9.78)"/>
  <path class="cls-3" d="M900.14,1329" transform="translate(-21.3 -9.78)"/>
  <path class="cls-4" d="M900.14,1329" transform="translate(-21.3 -9.78)"/>
  <path class="cls-5" d="M900.14,1329" transform="translate(-21.3 -9.78)"/>
  <path class="cls-6" d="M900.14,1329" transform="translate(-21.3 -9.78)"/>
  <line class="cls-7" x1="357.54" y1="212.42" x2="470.62" y2="212.42"/>
  <line class="cls-8" x1="473.83" y1="88.65" x2="471.63" y2="788.5"/>
  <g>
    <rect class="cls-9" x="55.1" y="685.25" width="664.58" height="55.72"/>
    <g>
      <polyline class="cls-10" points="719.68 734.97 719.68 740.97 713.68 740.97"/>
      <line class="cls-11" x1="701.82" y1="740.97" x2="67.04" y2="740.97"/>
      <polyline class="cls-10" points="61.1 740.97 55.1 740.97 55.1 734.97"/>
      <line class="cls-12" x1="55.1" y1="720.4" x2="55.1" y2="698.54"/>
      <polyline class="cls-10" points="55.1 691.25 55.1 685.25 61.1 685.25"/>
      <line class="cls-11" x1="72.97" y1="685.25" x2="707.75" y2="685.25"/>
      <polyline class="cls-10" points="713.68 685.25 719.68 685.25 719.68 691.25"/>
      <line class="cls-12" x1="719.68" y1="705.82" x2="719.68" y2="727.68"/>
    </g>
  </g>
  <text class="cls-13" transform="translate(78.11 720.07)">refchef-cook --execute --git push --config cfg.yaml </text>
  <line class="cls-8" x1="695.47" y1="786.5" x2="695.47" y2="1137.82"/>
  <polyline class="cls-8" points="663.43 1182.46 538.46 1182.46 538.46 1106.91"/>
  <polyline class="cls-8" points="563.83 1078.18 438.86 1078.18 438.86 985.34"/>
  <polyline class="cls-8" points="463.39 965.01 338.42 965.01 338.42 786.5"/>
  <path class="cls-14" d="M347.74,817.71H324A15.85,15.85,0,0,0,313.42,822l-6,6.07a15.47,15.47,0,0,0-4.32,10.58v72.4a9.52,9.52,0,0,0,9.5,9.46h101a9.58,9.58,0,0,0,9.48-9.47V844.33a9.56,9.56,0,0,0-9.47-9.46H371a5.61,5.61,0,0,1-2.64-1.44l-9.73-11.1a16.29,16.29,0,0,0-10.92-4.63Z" transform="translate(-21.3 -9.78)"/>
  <path class="cls-14" d="M547.74,1033.71H524a15.85,15.85,0,0,0-10.57,4.32l-6,6.07a15.47,15.47,0,0,0-4.32,10.58v72.4a9.52,9.52,0,0,0,9.5,9.46h101a9.58,9.58,0,0,0,9.48-9.47v-66.74a9.56,9.56,0,0,0-9.47-9.46H571a5.61,5.61,0,0,1-2.64-1.44l-9.73-11.1a16.29,16.29,0,0,0-10.92-4.63Z" transform="translate(-21.3 -9.78)"/>
  <path class="cls-14" d="M447.74,924.71H424A15.85,15.85,0,0,0,413.42,929l-6,6.07a15.47,15.47,0,0,0-4.32,10.58v72.4a9.52,9.52,0,0,0,9.5,9.46h101a9.58,9.58,0,0,0,9.48-9.47V951.33a9.56,9.56,0,0,0-9.47-9.46H471a5.61,5.61,0,0,1-2.64-1.44l-9.73-11.1a16.29,16.29,0,0,0-10.92-4.63Z" transform="translate(-21.3 -9.78)"/>
  <path class="cls-15" d="M303.09,857.71h120v60h-120Z" transform="translate(-21.3 -9.78)"/>
  <path d="M403.09,1019.38v0Z" transform="translate(-21.3 -9.78)"/>
  <text class="cls-16" transform="translate(290.31 870.98)">reference-<tspan x="21.61" y="25.2">folder</tspan></text>
  <text class="cls-16" transform="translate(393.31 971.39)">reference-<tspan x="27.42" y="25.2">key1</tspan></text>
  <text class="cls-16" transform="translate(503.28 1084.39)">primary</text>
  <path class="cls-17" d="M418.9,222l27-14v28.07Zm21-.8-1.56.8,1.57.84Z" transform="translate(-21.3 -9.78)"/>
  <g>
    <rect class="cls-18" x="443.18" y="499.06" width="63.97" height="116.99"/>
    <path class="cls-14" d="M477.75,535.46h31.9v7.35h-31.9v-7.34Zm0,14.09h31.9v7.26h-31.9v-7.27Zm0,13.81h31.9v7.26h-31.9Z" transform="translate(-21.3 -9.78)"/>
    <path class="cls-14" d="M514,508.85H469.07c-5.24,0-9.51,5.31-9.51,11.78v65c0,6.45,4.28,11.78,9.51,11.78h49.82c5.29,0,9.56-5.32,9.56-11.78V526.47Zm4.91,81.47H469.07c-2,0-3.66-1.94-3.66-4.68v-65c0-2.48,1.67-4.52,3.66-4.52H511v14.61h11.57v55.09c0,2.58-1.58,4.52-3.65,4.52Z" transform="translate(-21.3 -9.78)"/>
    <text class="cls-13" transform="translate(416.75 607.5)">master.yaml</text>
  </g>
  <path class="cls-14" d="M476.11,274.6H452.36a15.85,15.85,0,0,0-10.57,4.32l-6,6.07a15.47,15.47,0,0,0-4.32,10.58V368a9.52,9.52,0,0,0,9.5,9.46H542a9.58,9.58,0,0,0,9.48-9.47V301.22a9.56,9.56,0,0,0-9.47-9.46h-42.6a5.61,5.61,0,0,1-2.64-1.44L487,279.22a16.29,16.29,0,0,0-10.92-4.63Z" transform="translate(-21.3 -9.78)"/>
  <path class="cls-15" d="M431.46,316h120v60h-120Z" transform="translate(-21.3 -9.78)"/>
  <path class="cls-17" d="M371.81,217.79,335.05,182a5.33,5.33,0,0,0-7.32,0l-8.07,7.65,9.58,9.26a6.64,6.64,0,0,1,2.28-.4,6.29,6.29,0,0,1,6.4,6.18,6.61,6.61,0,0,1-.42,2.28l9.33,9a7.06,7.06,0,0,1,2.28-.4,6.22,6.22,0,1,1-6.4,6.18,5.86,5.86,0,0,1,.43-2.2l-8.74-8.44v22.1a6.16,6.16,0,0,1,3.54,5.44,6.29,6.29,0,0,1-6.4,6.18,6.35,6.35,0,0,1-6.47-6.18,6.26,6.26,0,0,1,4.2-5.85v-22.5a6,6,0,0,1-4.2-5.78,8,8,0,0,1,.42-2.2L316,193.1l-25.15,24.7a4.68,4.68,0,0,0,0,7l36.75,35.5a5.05,5.05,0,0,0,7.23,0l36.75-35.5a4.51,4.51,0,0,0,.26-7Z" transform="translate(-21.3 -9.78)"/>
  <text class="cls-16" transform="translate(423.97 326.17)">git-folder</text>
  <path class="cls-19" d="M493.2,408.15l14,27H479.14Zm.8,21-.8-1.56-.83,1.57Z" transform="translate(-21.3 -9.78)"/>
  <text class="cls-20" transform="translate(217.83 159.69)">--git commit</text>
  <text class="cls-21" transform="translate(481.79 859.34)">--execute</text>
  <text class="cls-22" transform="translate(523.46 990.77)"><tspan xml:space="preserve">      commands:</tspan><tspan x="0" y="19.2" xml:space="preserve">      - wget ftp://ftp.someplace.org/reference1.fa</tspan></text>
  <g>
    <g>
      <rect class="cls-18" x="670.17" y="1145.34" width="59.74" height="79"/>
      <path class="cls-14" d="M740.09,1147.88l-44.92-.05c-5.23,0-9.51,5.31-9.52,11.78l-.06,65c0,6.46,4.27,11.79,9.51,11.79l49.81,0c5.3,0,9.56-5.3,9.57-11.77l.06-59.17Zm4.83,81.48-49.83,0c-2,0-3.65-1.94-3.64-4.69l.06-65c0-2.48,1.67-4.52,3.66-4.52l41.89.05v14.61h11.57l-.06,55.09c0,2.58-1.59,4.52-3.65,4.51Z" transform="translate(-21.3 -9.78)"/>
      <text class="cls-13" transform="matrix(1, 0, 0, 1, 616.64, 1246.44)">reference1.fa</text>
    </g>
    <path d="M699.65,1209.57a1.15,1.15,0,0,0,1.15,1.29h2.35a1.18,1.18,0,0,0,1.17-1c0-.36.13-.81.25-1.32h22.72a11.65,11.65,0,0,1,.26,1.32,1.16,1.16,0,0,0,1.16,1h2.35a1.15,1.15,0,0,0,1.16-1.29,23.83,23.83,0,0,0-8.65-15.12,38.74,38.74,0,0,1-4.26,2.58c.45.33.83.68,1.24,1h-9.29a28,28,0,0,1,5.73-3.74c12.52-6.22,14.82-15.92,15.25-19.41a1.17,1.17,0,0,0-1.16-1.3h-2.36a1.17,1.17,0,0,0-1.16,1c0,.36-.13.81-.25,1.32H704.57c-.11-.51-.19-1-.24-1.32a1.17,1.17,0,0,0-1.17-1h-2.35a1.17,1.17,0,0,0-1.16,1.3c.37,3.12,2.27,11.2,11.63,17.33C701.93,1198.37,700,1206.45,699.65,1209.57Zm16.29-20a28,28,0,0,1-4.68-3.17h9.35a26.94,26.94,0,0,1-4.67,3.17Zm9.54-9a19.33,19.33,0,0,1-1.53,2.33h-16a17.19,17.19,0,0,1-1.53-2.33Zm-19.08,23.29a21,21,0,0,1,1.53-2.33h16a21.2,21.2,0,0,1,1.54,2.33Z" transform="translate(-21.3 -9.78)"/>
  </g>
  <text x="-21.3" y="-9.78"/>  <line class="cls-8" x1="338.42" y1="788.5" x2="695.47" y2="788.5"/>
  <path class="cls-19" d="M716.75,871.2l-14-27h28.07Zm-.8-21,.8,1.56.83-1.57Z" transform="translate(-21.3 -9.78)"/>
  <path class="cls-19" d="M715.93,1108l-14-27H730Zm-.81-21,.81,1.56.83-1.57Z" transform="translate(-21.3 -9.78)"/>
  <path class="cls-19" d="M398.49,797.11l27-14v28.08Zm21-.8-1.56.8,1.57.83Z" transform="translate(-21.3 -9.78)"/>
  <path class="cls-19" d="M604.53,798.3l-27,14V784.24Zm-21,.8,1.56-.8-1.57-.83Z" transform="translate(-21.3 -9.78)"/>
  <path class="cls-23" d="M494.74,74.22" transform="translate(-21.3 -9.78)"/>
  <path class="cls-23" d="M494.74,222.2" transform="translate(-21.3 -9.78)"/>
  <text class="cls-20" transform="translate(271.02 272.51)">local<tspan x="-39.01" y="31.2">repository</tspan></text>
  <path class="cls-14" d="M887.15,959.56c19.27,5.37,31.74,17.78,31.74,32,0,16.27-16.61,30.19-39.67,33.78l-7.56,1.1H598.51c-31.74,0-57.43-17.51-57.43-38.61s25.72-38.6,57.44-38.6a38,38,0,0,1,6.81.41c9.44-10.2,25.72-16,43.84-16A72.84,72.84,0,0,1,663.53,935v-1.38c0-25.09,29.84-45.09,67.25-45.09,25.69,0,49.49,10.48,60.45,26.2A87.46,87.46,0,0,1,823,909c35.89,0,65,19.58,65,43.57a15.51,15.51,0,0,1-.77,7Z" transform="translate(-21.3 -9.78)"/>
  <text class="cls-24" transform="translate(542.09 969.89)">wget<tspan x="0" y="24">ftp://ftp.someplace.org/reference1.fa</tspan></text>
  <line class="cls-8" x1="128.83" y1="88.65" x2="473.83" y2="88.65"/>
  <path class="cls-19" d="M103.05,45.23c-26.5,0-48,22.4-48,50s21.5,50,48,50,48-22.4,48-50S129.65,45.23,103.05,45.23Zm12.68,93.4v-8.4a10.41,10.41,0,0,0-4.32-8.2h.48a38.73,38.73,0,0,0,8.54-2s5.86-1.9,9.12-5.8a25.7,25.7,0,0,0,4.32-10.3,43.91,43.91,0,0,0,0-11.9,18.51,18.51,0,0,0-4.8-8.6,20.29,20.29,0,0,0,1.06-6.9,19,19,0,0,0-1.54-6.8,13,13,0,0,0-5.85,1,52.51,52.51,0,0,0-7.6,4.5,27.46,27.46,0,0,0-6-1.3,38.77,38.77,0,0,0-6.52-.6,40.46,40.46,0,0,0-6.63.6,54.8,54.8,0,0,0-6,1.3,53,53,0,0,0-7.58-4.5,12.55,12.55,0,0,0-5.76-1A19.11,19.11,0,0,0,75,76.53a29,29,0,0,0,1,6.9,19.7,19.7,0,0,0-4.7,8.6c-1.34,5.3,0,11.9,0,11.9s.67,6,4.22,10.3c3.36,3.9,9.12,5.8,9.12,5.8a40.65,40.65,0,0,0,8.55,2h.77a12.53,12.53,0,0,0-3.57,8.2v8.4c-17.85-5.5-30.8-22.9-30.8-43.4,0-25,19.48-45.2,43.48-45.2s43.78,20.2,43.78,45.2c0,20.5-13.15,37.9-31.1,43.4Z" transform="translate(-21.3 -9.78)"/>
  <text class="cls-21" transform="translate(0.5 21.03)">--git push</text>
  <text class="cls-21" transform="translate(35.08 155.45)">remote<tspan x="-31.21" y="31.2">repository</tspan></text>
  <path class="cls-19" d="M192.05,98.41l27-14v28.07Zm21-.8-1.56.8,1.57.84Z" transform="translate(-21.3 -9.78)"/>
</svg>
