<svg id="Layer_1" data-name="Layer 1" xmlns="http://www.w3.org/2000/svg" viewBox="0 0 885.34 1593.52">
  <defs>
    <style>
      .cls-1, .cls-10, .cls-12, .cls-16, .cls-3, .cls-4, .cls-5 {
        fill: none;
      }

      .cls-1, .cls-18, .cls-19, .cls-7 {
        stroke: #ee8922;
      }

      .cls-1, .cls-12, .cls-16, .cls-3, .cls-4, .cls-5, .cls-7 {
        stroke-width: 6px;
      }

      .cls-1, .cls-12, .cls-16 {
        stroke-dasharray: 12;
      }

      .cls-2 {
        fill: #ddd;
      }

      .cls-3, .cls-4, .cls-5 {
        stroke: #ee8d22;
      }

      .cls-4 {
        stroke-dasharray: 12.14 12.14;
      }

      .cls-5 {
        stroke-dasharray: 14.57 14.57;
      }

      .cls-14, .cls-6 {
        font-size: 20px;
      }

      .cls-6 {
        font-family: Courier-Bold, Courier;
      }

      .cls-11, .cls-14, .cls-20, .cls-6 {
        font-weight: 700;
      }

      .cls-18, .cls-19, .cls-7 {
        fill: #ee8922;
      }

      .cls-11, .cls-14, .cls-20, .cls-8 {
        fill: #fff;
      }

      .cls-8 {
        stroke: #fff;
      }

      .cls-9 {
        fill: #2a3282;
        stroke: #000;
      }

      .cls-18, .cls-9 {
        stroke-opacity: 0;
      }

      .cls-11 {
        font-size: 21px;
      }

      .cls-11, .cls-14, .cls-20 {
        font-family: Arial-BoldMT, Arial;
      }

      .cls-12 {
        stroke: #97999c;
      }

      .cls-13, .cls-15 {
        fill: #999;
        stroke: #999;
      }

      .cls-15 {
        stroke-width: 0.5px;
      }

      .cls-16 {
        stroke: #c92d3a;
      }

      .cls-17 {
        fill: #ee8d22;
      }

      .cls-18 {
        stroke-width: 0.25px;
      }

      .cls-19 {
        font-size: 26px;
        font-family: Courier;
      }

      .cls-20 {
        font-size: 16px;
      }

      .cls-21 {
        fill: #00188f;
      }
    </style>
  </defs>
  <title>newyaml_usecase</title>
  <g>
    <line class="cls-1" x1="217.35" y1="75.08" x2="330.43" y2="75.08"/>
    <line class="cls-1" x1="333.25" y1="75.08" x2="331.44" y2="603.63"/>
  </g>
  <g>
    <rect class="cls-2" x="3" y="538.09" width="873.92" height="55.72"/>
    <g>
      <polyline class="cls-3" points="876.92 587.81 876.92 593.81 870.92 593.81"/>
      <line class="cls-4" x1="858.78" y1="593.81" x2="15.07" y2="593.81"/>
      <polyline class="cls-3" points="9 593.81 3 593.81 3 587.81"/>
      <line class="cls-5" x1="3" y1="573.24" x2="3" y2="551.38"/>
      <polyline class="cls-3" points="3 544.09 3 538.09 9 538.09"/>
      <line class="cls-4" x1="21.14" y1="538.09" x2="864.85" y2="538.09"/>
      <polyline class="cls-3" points="870.92 538.09 876.92 538.09 876.92 544.09"/>
      <line class="cls-5" x1="876.92" y1="558.67" x2="876.92" y2="580.53"/>
    </g>
  </g>
  <text class="cls-6" transform="translate(27 571.91)">refchef-cook --execute --new new.yaml --git commit --config cfg.yaml </text>
  <path class="cls-7" d="M287.53,88.31l27-14v28.07Zm21-.8-1.56.8,1.57.84Z" transform="translate(-27.12 -13.44)"/>
  <g>
    <rect class="cls-8" x="302.99" y="361.72" width="63.97" height="116.99"/>
    <path class="cls-9" d="M343.38,401.77h31.9v7.36h-31.9v-7.35Zm0,14.09h31.9v7.26h-31.9v-7.27Zm0,13.81h31.9v7.26h-31.9Z" transform="translate(-27.12 -13.44)"/>
    <path class="cls-9" d="M379.61,375.16H334.7c-5.24,0-9.51,5.31-9.51,11.78v65c0,6.46,4.28,11.78,9.52,11.78h49.81c5.3,0,9.56-5.32,9.56-11.78V392.78Zm4.91,81.47H334.7c-2,0-3.65-1.94-3.65-4.68v-65c0-2.48,1.66-4.52,3.66-4.52H376.6V397h11.56v55.09c0,2.58-1.58,4.52-3.65,4.52Z" transform="translate(-27.12 -13.44)"/>
    <text class="cls-6" transform="translate(276.56 470.15)">master.yaml</text>
  </g>
  <path class="cls-9" d="M341.74,140.91H318a15.85,15.85,0,0,0-10.57,4.32l-6,6.07a15.47,15.47,0,0,0-4.32,10.58v72.4a9.52,9.52,0,0,0,9.5,9.46h101a9.58,9.58,0,0,0,9.48-9.47V167.53a9.56,9.56,0,0,0-9.47-9.46H365a5.61,5.61,0,0,1-2.64-1.44l-9.73-11.1a16.29,16.29,0,0,0-10.92-4.63Z" transform="translate(-27.12 -13.44)"/>
  <path class="cls-10" d="M297.09,182.33h120v60h-120Z" transform="translate(-27.12 -13.44)"/>
  <text class="cls-11" transform="translate(283.79 188.82)">git-folder</text>
  <path class="cls-7" d="M358.83,274.46l14,27H344.77Zm.81,21-.81-1.56-.83,1.57Z" transform="translate(-27.12 -13.44)"/>
  <g>
    <line class="cls-12" x1="555.29" y1="649.15" x2="555.29" y2="1000.47"/>
    <polyline class="cls-12" points="523.24 1045.11 398.27 1045.11 398.27 969.57"/>
    <polyline class="cls-12" points="423.64 940.83 298.67 940.83 298.67 847.99"/>
    <polyline class="cls-12" points="323.2 827.67 198.24 827.67 198.24 649.15"/>
    <line class="cls-12" x1="198.24" y1="651.15" x2="555.29" y2="651.15"/>
  </g>
  <path class="cls-9" d="M213.37,684H189.62a15.85,15.85,0,0,0-10.57,4.32l-6,6.07A15.47,15.47,0,0,0,168.73,705v72.4a9.52,9.52,0,0,0,9.5,9.46h101a9.58,9.58,0,0,0,9.48-9.47V710.64a9.56,9.56,0,0,0-9.47-9.46h-42.6a5.61,5.61,0,0,1-2.64-1.44l-9.73-11.1A16.29,16.29,0,0,0,213.38,684Z" transform="translate(-27.12 -13.44)"/>
  <path class="cls-13" d="M413.37,900H389.62a15.85,15.85,0,0,0-10.57,4.32l-6,6.07A15.47,15.47,0,0,0,368.73,921v72.4a9.52,9.52,0,0,0,9.5,9.46h101a9.58,9.58,0,0,0,9.48-9.47V926.64a9.56,9.56,0,0,0-9.47-9.46h-42.6a5.61,5.61,0,0,1-2.64-1.44l-9.73-11.1A16.29,16.29,0,0,0,413.38,900Z" transform="translate(-27.12 -13.44)"/>
  <path class="cls-13" d="M313.37,791H289.62a15.85,15.85,0,0,0-10.57,4.32l-6,6.07A15.47,15.47,0,0,0,268.73,812v72.4a9.52,9.52,0,0,0,9.5,9.46h101a9.58,9.58,0,0,0,9.48-9.47V817.64a9.56,9.56,0,0,0-9.47-9.46h-42.6a5.61,5.61,0,0,1-2.64-1.44l-9.73-11.1A16.29,16.29,0,0,0,313.38,791Z" transform="translate(-27.12 -13.44)"/>
  <path class="cls-10" d="M168.72,724h120v60h-120Z" transform="translate(-27.12 -13.44)"/>
  <text class="cls-11" transform="translate(150.12 733.63)">reference-<tspan x="21.61" y="25.2">folder</tspan></text>
  <text class="cls-11" transform="translate(253.13 834.05)">reference-<tspan x="27.42" y="25.2">key1</tspan></text>
  <text class="cls-11" transform="translate(363.1 947.05)">primary</text>
  <text x="-27.12" y="-13.44"/>  <path class="cls-13" d="M750,830.46c19.27,5.38,31.74,17.79,31.74,32,0,16.27-16.61,30.2-39.67,33.78l-7.56,1.11H461.31c-31.74,0-57.43-17.52-57.43-38.61s25.72-38.61,57.45-38.61a37.93,37.93,0,0,1,6.8.41c9.44-10.2,25.72-16,43.84-16a72.1,72.1,0,0,1,14.36,1.38v-1.38c0-25.1,29.84-45.09,67.25-45.09,25.69,0,49.49,10.48,60.45,26.2a87.46,87.46,0,0,1,31.74-5.79c35.89,0,65,19.58,65,43.57a15.47,15.47,0,0,1-.77,7Z" transform="translate(-27.12 -13.44)"/>
  <text class="cls-14" transform="translate(399.08 837.14)">wget<tspan x="0" y="24">ftp://ftp.someplace.org/reference1.fa</tspan></text>
  <g>
    <g>
      <rect class="cls-8" x="529.99" y="1007.99" width="59.74" height="79"/>
      <path class="cls-13" d="M605.72,1014.19l-44.91,0c-5.24,0-9.52,5.3-9.52,11.77l-.07,65c0,6.46,4.27,11.79,9.51,11.79l49.81,0c5.3,0,9.57-5.3,9.57-11.77l.06-59.17Zm4.83,81.48-49.82-.05c-2,0-3.65-1.94-3.65-4.69l.06-65c0-2.48,1.67-4.52,3.67-4.51l41.89,0,0,14.61h11.57l0,55.09c0,2.58-1.59,4.52-3.66,4.51Z" transform="translate(-27.12 -13.44)"/>
      <text class="cls-6" transform="matrix(1, 0, 0, 1, 476.45, 1109.1)">reference1.fa</text>
    </g>
    <path class="cls-15" d="M566.11,1075.88a1.16,1.16,0,0,0,1.16,1.29h2.35a1.17,1.17,0,0,0,1.16-1c.06-.36.14-.81.25-1.32h22.73c.12.5.21,1,.26,1.32a1.16,1.16,0,0,0,1.16,1h2.35a1.16,1.16,0,0,0,1.16-1.29,23.91,23.91,0,0,0-8.66-15.12,39.53,39.53,0,0,1-4.25,2.58c.45.33.83.68,1.23,1h-9.28a28.6,28.6,0,0,1,5.72-3.74c12.53-6.22,14.83-15.92,15.25-19.41a1.16,1.16,0,0,0-1.16-1.29h-2.35a1.18,1.18,0,0,0-1.17,1c0,.36-.13.81-.25,1.32H571c-.12-.51-.2-1-.25-1.32a1.16,1.16,0,0,0-1.16-1h-2.35a1.17,1.17,0,0,0-1.17,1.29c.38,3.12,2.28,11.2,11.64,17.33C568.4,1064.68,566.49,1072.76,566.11,1075.88Zm16.3-20a28,28,0,0,1-4.68-3.17h9.35a27.73,27.73,0,0,1-4.67,3.17Zm9.54-9a20.07,20.07,0,0,1-1.53,2.32h-16a20.07,20.07,0,0,1-1.53-2.32Zm-19.08,23.28a21.32,21.32,0,0,1,1.52-2.32h16a19,19,0,0,1,1.54,2.32Z" transform="translate(-27.12 -13.44)"/>
  </g>
  <text x="-27.12" y="-13.44"/>  <path class="cls-13" d="M582.38,737.51l-14-27h28.07Zm-.8-21,.8,1.56.84-1.57Z" transform="translate(-27.12 -13.44)"/>
  <path class="cls-13" d="M581.56,974.33l-14-27h28.07Zm-.8-21,.8,1.56.83-1.57Z" transform="translate(-27.12 -13.44)"/>
  <path class="cls-13" d="M264.13,663.42l27-14v28.08Zm21-.8-1.56.8,1.57.83Z" transform="translate(-27.12 -13.44)"/>
  <path class="cls-13" d="M470.17,664.62l-27,14V650.55Zm-21,.8,1.56-.8-1.57-.84Z" transform="translate(-27.12 -13.44)"/>
  <path class="cls-16" d="M360.37-59.47" transform="translate(-27.12 -13.44)"/>
  <path class="cls-1" d="M360.37,88.51" transform="translate(-27.12 -13.44)"/>
  <path class="cls-17" d="M476.16,1180.59l-27,14v-28.07Zm-21,.8,1.56-.8-1.57-.83Z" transform="translate(-27.12 -13.44)"/>
  <line class="cls-12" x1="331.44" y1="606.63" x2="331.41" y2="653"/>
  <g>
    <rect class="cls-8" x="557.61" y="363" width="63.97" height="116.99"/>
    <path class="cls-9" d="M598,403.05h31.9v7.36H598v-7.35Zm0,14.09h31.9v7.26H598v-7.27ZM598,431h31.9v7.26H598Z" transform="translate(-27.12 -13.44)"/>
    <path class="cls-9" d="M634.23,376.44H589.31c-5.23,0-9.5,5.31-9.5,11.78v65c0,6.46,4.28,11.78,9.51,11.78h49.82c5.29,0,9.56-5.32,9.56-11.78V394.06Zm4.91,81.47H589.31c-2,0-3.65-1.94-3.65-4.68v-65c0-2.48,1.66-4.52,3.66-4.52h41.89v14.61h11.57V453.4c0,2.58-1.59,4.52-3.65,4.52Z" transform="translate(-27.12 -13.44)"/>
    <text class="cls-6" transform="translate(541.18 471.43)">new.yaml</text>
  </g>
  <line class="cls-1" x1="366.38" y1="406.81" x2="552.68" y2="406.81"/>
  <path class="cls-7" d="M435.7,420.23l27-14v28.08Zm21-.81-1.56.81,1.57.83Z" transform="translate(-27.12 -13.44)"/>
  <path class="cls-7" d="M482.39,420.7l27-14v28.07Zm21-.8-1.56.8,1.57.83Z" transform="translate(-27.12 -13.44)"/>
  <path class="cls-18" d="M239.07,83.78,202.31,48A5.33,5.33,0,0,0,195,48l-8.07,7.65,9.58,9.26a6.64,6.64,0,0,1,2.28-.4,6.29,6.29,0,0,1,6.4,6.18,6.61,6.61,0,0,1-.42,2.28l9.33,9a7.06,7.06,0,0,1,2.28-.4,6.22,6.22,0,1,1-6.4,6.18,5.86,5.86,0,0,1,.43-2.2l-8.74-8.44v22.1a6.16,6.16,0,0,1,3.54,5.44,6.29,6.29,0,0,1-6.4,6.18,6.35,6.35,0,0,1-6.47-6.18,6.26,6.26,0,0,1,4.2-5.85V76.33a6,6,0,0,1-4.2-5.78,8,8,0,0,1,.42-2.2l-9.5-9.26L158.1,83.79a4.68,4.68,0,0,0,0,7l36.75,35.5a5.05,5.05,0,0,0,7.23,0l36.75-35.5a4.51,4.51,0,0,0,.26-7Z" transform="translate(-27.12 -13.44)"/>
  <text class="cls-19" transform="translate(79.26 21.03)">--git commit</text>
  <text class="cls-19" transform="translate(132.45 134.85)">local<tspan x="-39.01" y="31.2">repository</tspan></text>
  <line class="cls-1" x1="688.06" y1="1167.13" x2="689.71" y2="1492.84"/>
  <polyline class="cls-1" points="668.79 1526.11 402.61 1526.11 402.61 1476.92"/>
  <polyline class="cls-1" points="423.58 1432.27 298.61 1432.27 298.61 1339.43"/>
  <line class="cls-1" x1="198.24" y1="1167.13" x2="688.06" y2="1167.13"/>
  <path class="cls-9" d="M414.36,1388.31H390.61a15.85,15.85,0,0,0-10.57,4.32l-6,6.07a15.47,15.47,0,0,0-4.32,10.58v72.4a9.52,9.52,0,0,0,9.5,9.46h101a9.58,9.58,0,0,0,9.48-9.47v-66.74a9.56,9.56,0,0,0-9.47-9.46h-42.6A5.61,5.61,0,0,1,435,1404l-9.73-11.1a16.29,16.29,0,0,0-10.92-4.63Z" transform="translate(-27.12 -13.44)"/>
  <path class="cls-9" d="M315.68,1275.45H291.93a15.85,15.85,0,0,0-10.57,4.32l-6,6.07a15.47,15.47,0,0,0-4.32,10.58v72.4a9.52,9.52,0,0,0,9.5,9.46h101a9.58,9.58,0,0,0,9.48-9.47v-66.74a9.56,9.56,0,0,0-9.47-9.46H339a5.61,5.61,0,0,1-2.64-1.44l-9.73-11.1a16.29,16.29,0,0,0-10.92-4.63Z" transform="translate(-27.12 -13.44)"/>
  <path d="M168.72,1143.55v0Z" transform="translate(-27.12 -13.44)"/>
  <text class="cls-11" transform="translate(255.44 1318.48)">reference-<tspan x="27.42" y="25.2">key2</tspan></text>
  <text class="cls-11" transform="translate(364.09 1435.34)">primary</text>
  <text class="cls-20" transform="translate(502.91 1360.86)"><tspan xml:space="preserve">      commands:</tspan><tspan x="0" y="19.2" xml:space="preserve">      - wget ftp://ftp.someplace.org/reference2.fa</tspan></text>
  <g>
    <rect class="cls-8" x="660.71" y="1484.2" width="59.74" height="79"/>
    <path class="cls-9" d="M736.44,1490.4l-44.91,0c-5.24,0-9.51,5.3-9.52,11.77l-.06,65c0,6.46,4.27,11.79,9.5,11.8l49.82,0c5.29,0,9.56-5.3,9.57-11.77l.06-59.17Zm4.83,81.48-49.82-.05c-2,0-3.65-1.94-3.65-4.69l.07-65c0-2.48,1.66-4.52,3.66-4.51l41.89,0v14.61H745l-.06,55.09c0,2.58-1.59,4.52-3.65,4.52Z" transform="translate(-27.12 -13.44)"/>
    <text class="cls-6" transform="matrix(1, 0, 0, 1, 607.18, 1585.31)">reference2.fa</text>
  </g>
  <path class="cls-17" d="M716.81,1255.87l-14-27h28.07Zm-.8-21,.8,1.56.83-1.57Z" transform="translate(-27.12 -13.44)"/>
  <path class="cls-17" d="M716,1466.69l-14-27h28.08Zm-.81-21,.81,1.56.83-1.57Z" transform="translate(-27.12 -13.44)"/>
  <line class="cls-1" x1="197.67" y1="1317.18" x2="241.6" y2="1317.18"/>
  <line class="cls-1" x1="198.24" y1="846.42" x2="198.24" y2="1317.18"/>
  <path class="cls-17" d="M225.81,1252.87l-14-27h28.07Zm-.8-21,.8,1.56.83-1.57Z" transform="translate(-27.12 -13.44)"/>
  <path class="cls-21" d="M880.72,1349.86c19.27,5.38,31.74,17.79,31.74,32,0,16.28-16.61,30.2-39.67,33.79l-7.56,1.1H592.08c-31.74,0-57.43-17.51-57.43-38.61s25.72-38.61,57.44-38.61a36.93,36.93,0,0,1,6.8.42c9.45-10.21,25.73-16,43.85-16a72.67,72.67,0,0,1,14.35,1.38v-1.38c0-25.09,29.85-45.09,67.26-45.09,25.69,0,49.49,10.48,60.45,26.2a87.42,87.42,0,0,1,31.74-5.79c35.89,0,65,19.58,65,43.57a15.65,15.65,0,0,1-.77,7Z" transform="translate(-27.12 -13.44)"/>
  <text class="cls-14" transform="translate(529.84 1356.54)">wget<tspan x="0" y="24">ftp://ftp.someplace.org/reference2.fa</tspan></text>
  <text class="cls-19" transform="translate(435.55 325.98)">--new new.yaml</text>
  <text class="cls-19" transform="translate(263.98 1218.45)">--execute --new new.yaml</text>
  <path d="M700.09,1556.87a1.16,1.16,0,0,0,1.16,1.3h2.35a1.18,1.18,0,0,0,1.17-1c.05-.35.13-.8.24-1.31h22.73c.12.5.21,1,.26,1.31a1.17,1.17,0,0,0,1.16,1h2.35a1.16,1.16,0,0,0,1.16-1.3,23.84,23.84,0,0,0-8.65-15.11,37.23,37.23,0,0,1-4.26,2.57c.45.34.83.69,1.24,1h-9.29a28,28,0,0,1,5.73-3.74c12.52-6.23,14.82-15.93,15.25-19.41a1.17,1.17,0,0,0-1.16-1.3h-2.36a1.17,1.17,0,0,0-1.16,1c-.06.35-.14.8-.25,1.31H705c-.11-.51-.19-1-.25-1.31a1.17,1.17,0,0,0-1.16-1h-2.35a1.17,1.17,0,0,0-1.17,1.3c.38,3.12,2.28,11.2,11.64,17.33C702.38,1545.67,700.47,1553.75,700.09,1556.87Zm16.3-20a27.45,27.45,0,0,1-4.68-3.18h9.35a26.4,26.4,0,0,1-4.67,3.18Zm9.54-9a19.33,19.33,0,0,1-1.53,2.33h-16a18.08,18.08,0,0,1-1.52-2.33Zm-19.08,23.29a19.33,19.33,0,0,1,1.53-2.33h16a18.44,18.44,0,0,1,1.55,2.33Z" transform="translate(-27.12 -13.44)"/>
</svg>
