<svg xmlns="http://www.w3.org/2000/svg" xmlns:xlink="http://www.w3.org/1999/xlink" xmlns:lucid="lucid" width="1570.91" height="1112.09"><g transform="translate(-4.094166666666638 -61.41765704580058)" lucid:page-tab-id="0_0"><path d="M380.55 760H356.8c-3.73 0-8.05 1.75-10.57 4.32l-6 6.07c-2.64 2.56-4.32 6.77-4.32 10.58v72.4c0 5.24 4.33 9.46 9.5 9.46h101.03c5.16 0 9.48-4.32 9.48-9.47v-66.74c0-5.14-4.3-9.46-9.47-9.46h-42.6c-.6 0-2.04-.82-2.64-1.44l-9.73-11.1c-2.88-2.88-7.2-4.63-10.92-4.63zM580.55 1040H556.8c-3.73 0-8.05 1.75-10.57 4.32l-6 6.07c-2.64 2.56-4.32 6.77-4.32 10.58v72.4c0 5.24 4.33 9.46 9.5 9.46h101.03c5.16 0 9.48-4.32 9.48-9.47v-66.74c0-5.14-4.3-9.46-9.47-9.46h-42.6c-.6 0-2.04-.82-2.64-1.44l-9.73-11.1c-2.88-2.88-7.2-4.63-10.92-4.63zM480.55 900H456.8c-3.73 0-8.05 1.75-10.57 4.32l-6 6.07c-2.64 2.56-4.32 6.77-4.32 10.58v72.4c0 5.24 4.33 9.46 9.5 9.46h101.03c5.16 0 9.48-4.32 9.48-9.47v-66.74c0-5.14-4.3-9.46-9.47-9.46h-42.6c-.6 0-2.04-.82-2.64-1.44l-9.73-11.1c-2.88-2.88-7.2-4.63-10.92-4.63z" stroke="#000" stroke-opacity="0" fill="#2a3282"/><path d="M655.9 700h497.34v60H655.9z" fill="none"/><use xlink:href="#a" transform="matrix(1,0,0,1,655.9058333333332,699.9999999999999) translate(22.29644097222217 36.662326388888886)"/><use xlink:href="#b" transform="matrix(1,0,0,1,655.9058333333332,699.9999999999999) translate(115.64496527777774 36.662326388888886)"/><use xlink:href="#c" transform="matrix(1,0,0,1,655.9058333333332,699.9999999999999) translate(289.0065104166667 36.662326388888886)"/><use xlink:href="#d" transform="matrix(1,0,0,1,655.9058333333332,699.9999999999999) translate(422.3615451388889 36.662326388888886)"/><path d="M631.8 900h240v60h-240z" fill="none"/><use xlink:href="#e" transform="matrix(1,0,0,1,631.8116666666665,899.9999999999999) translate(76.79296875 35.396484375)"/><path d="M475.9 1082.84h240v60h-240z" fill="none"/><use xlink:href="#f" transform="matrix(1,0,0,1,475.90583333333325,1082.8353140916809) translate(82.19384765625 35.396484375)"/><path d="M375.9 942.84h240v60h-240z" fill="none"/><use xlink:href="#g" transform="matrix(1,0,0,1,375.90583333333325,942.8353140916809) translate(67.99153645833334 33.99739583333333)"/><path d="M60 748.23h154.1v60H60z" fill="none"/><use xlink:href="#h" transform="matrix(1,0,0,1,59.99999999999997,748.2306451613302) translate(34.826388888888886 26.44097222222222)"/><use xlink:href="#i" transform="matrix(1,0,0,1,59.99999999999997,748.2306451613302) translate(40.16059027777777 44.21875)"/><path d="M475.9 530h178.67v60H475.9z" fill="none"/><use xlink:href="#j" transform="matrix(1,0,0,1,475.90583333333325,530) translate(30.09033203125 35.396484375)"/><path d="M335.9 800h120v60h-120z" fill="none"/><use xlink:href="#k" transform="matrix(1,0,0,1,335.90583333333325,800) translate(0 26.396484375)"/><use xlink:href="#l" transform="matrix(1,0,0,1,335.90583333333325,800) translate(0 44.396484375)"/><path d="M140.02 698.67l-1.6-7.56-6.06.43c-.46-.98-1.26-1.96-2.18-2.94l2.18-6.17-5.95-4.06-3.42 5.18c-1.26-.56-2.63-.56-3.9-.56l-2.17-6.17-6.4 2.1.92 6.58c-.9.57-1.7 1.4-2.63 1.97l-5.15-2.52-3.44 7.14 4.36 3.9c-.46 1.55-.46 3.1-.46 4.07l-4.8 2.52 1.72 7.55 5.6-.56c.46 1.53 1.26 2.5 2.17 3.63l-2.18 5.46 6.06 4.05 3.43-5.04c1.27.57 2.07.57 3.33.57l2.17 5.46 6.52-1.96-.45-6.58c.8-1 2.06-1.55 2.97-2.53l5.15 2.52 3.42-6.6-4.23-4.05c.45-1.4.45-2.52.45-4.06l4.57-1.83zm-16.36 12.18c-4.7 2.94-10.3.42-12.8-5.04-2.64-5.6-.47-12.17 4.22-15.25 4.8-2.52 10.3-.42 12.93 5.18 2.18 5.46.47 12.6-4.34 15.12zM158.55 659.6c-1.26-.55-2.52-.55-3.77-.55l-2.18-6.16-6.4 2.1.8 6.57c-.8.56-1.72 1.54-2.52 1.96l-5.26-2.52-3.32 7.15 4.23 3.92c-.45 1.54-.45 3.08-.45 4.06l-4.7 2.52 1.72 7.56 5.6-.55c.47 1.54 1.27 2.52 2.18 3.64l-2.17 5.45 5.96 4.06 3.43-5.03c1.25.56 2.16.56 3.42.56l2.17 5.6 6.4-2.1-.46-6.58c.92-.56 2.17-1.54 3.1-2.52l5.14 2.52 3.43-6.58-4.34-4.06c.46-1.4.46-2.5.46-3.9l5.15-2.53-1.72-7.7-5.95.56c-.45-.98-1.26-1.96-2.17-3.08l2.17-6.02-5.95-4.06-4 5.74zm.46 27.17c-4.8 3.08-10.3.56-12.92-5.04-2.63-5.6-.45-12.04 4.35-15.12 4.7-3.07 10.3-.55 12.8 5.05 2.18 5.6.47 12.6-4.22 15.12z" stroke="#000" stroke-opacity="0" fill="#0078d7"/><path d="M170.56 608.23h-1.7-73.47c-8.68 0-15.55 8.12-15.55 18.2v103.6c0 10.08 6.87 18.2 15.56 18.2h83.4c8.58 0 15.44-8.12 15.44-18.2V636.1l-23.68-27.87zM186 730.03c0 4.48-2.97 8.12-6.86 8.12h-83.4c-3.88 0-6.85-3.64-6.85-8.12v-103.6c0-4.48 2.96-8.12 6.85-8.12h71.38V641H186v89.03z" stroke="#000" stroke-opacity="0" fill="#0078d7"/><path d="M194.24 680.6h70.83V501.2h46.13" stroke="#000" stroke-width="6" fill="none"/><path d="M194.24 683.6v-6zM326.2 501.2l-14.27 4.62v-9.27z"/><path d="M335.9 501.2l-26.97 8.75v-17.53zm-20.97.5l1.56-.5-1.57-.52z"/><path d="M380.55 440H356.8c-3.73 0-8.05 1.75-10.57 4.32l-6 6.07c-2.64 2.56-4.32 6.77-4.32 10.58v72.4c0 5.24 4.33 9.46 9.5 9.46h101.03c5.16 0 9.48-4.32 9.48-9.47v-66.74c0-5.14-4.3-9.46-9.47-9.46h-42.6c-.6 0-2.04-.82-2.64-1.44l-9.73-11.1c-2.88-2.88-7.2-4.63-10.92-4.63z" stroke="#000" stroke-opacity="0" fill="#2a3282"/><path d="M335.9 481.42h120v60h-120z" fill="none"/><use xlink:href="#m" transform="matrix(1,0,0,1,335.90583333333336,481.41765704588033) translate(0 26.396484375)"/><use xlink:href="#l" transform="matrix(1,0,0,1,335.90583333333336,481.41765704588033) translate(0 44.396484375)"/><path d="M194.24 680.6h70.83v140.6h46.13" stroke="#000" stroke-width="6" fill="none"/><path d="M194.24 683.6v-6zM326.2 821.2l-14.27 4.62v-9.27z"/><path d="M335.9 821.2l-26.97 8.75v-17.53zm-20.97.5l1.56-.5-1.57-.52z"/><path d="M815.9 100c-26.5 0-48 22.4-48 50 0 27.7 21.5 50 48 50 26.6 0 48-22.4 48-50 0-27.7-21.4-50-48-50zm12.68 93.4V185c0-3.4-1.83-6.3-4.32-8.2h.48c4.6-.5 8.54-2 8.54-2s5.86-1.9 9.12-5.8c3.36-4.3 4.32-10.3 4.32-10.3s.96-6.6 0-11.9c-.96-4.9-4.8-8.6-4.8-8.6s1.25-3.5 1.06-6.9c0-3.4-1.54-6.8-1.54-6.8s-2.78-.3-5.85 1c-3.57 1.6-7.6 4.5-7.6 4.5s-2.78-1-6.05-1.3c-2.97-.6-6.52-.6-6.52-.6s-3.56 0-6.63.6c-3.26.5-6.05 1.3-6.05 1.3s-4.03-2.9-7.58-4.5c-2.98-1.3-5.76-1-5.76-1s-1.53 3.4-1.53 6.8c0 3.5.96 6.9.96 6.9s-3.45 3.4-4.7 8.6c-1.34 5.3 0 11.9 0 11.9s.67 6 4.22 10.3c3.36 3.9 9.12 5.8 9.12 5.8s4.04 1.5 8.55 2h.77c-1.74 1.9-3.57 4.8-3.57 8.2v8.4c-17.85-5.5-30.8-22.9-30.8-43.4 0-25 19.48-45.2 43.48-45.2 24 0 43.78 20.2 43.78 45.2 0 20.5-13.15 37.9-31.1 43.4z" stroke="#000" stroke-opacity="0" fill="#3aa6dd"/><path d="M617.03 472.9h37.04v8.54h-37.04v-8.53zM617.03 489.26h37.04v8.43h-37.04v-8.44zM617.03 505.3h37.04v8.43h-37.04v-8.43z" stroke="#000" stroke-opacity="0" fill="#2a3282"/><path d="M659.1 440h-52.15c-6.08 0-11.04 6.17-11.04 13.68v75.48c0 7.5 4.97 13.68 11.05 13.68h57.84c6.15 0 11.1-6.17 11.1-13.68v-68.7L659.1 440zm5.7 94.6h-57.85c-2.32 0-4.24-2.25-4.24-5.44v-75.48c0-2.88 1.93-5.25 4.25-5.25h48.64v16.97h13.43v63.96c0 3-1.84 5.25-4.24 5.25z" stroke="#000" stroke-opacity="0" fill="#2a3282"/><path d="M455.9 496h115.3" stroke="#000" stroke-width="6" fill="none"/><path/><path d="M586.2 496l-14.27 4.64v-9.28z"/><path d="M595.9 496l-26.97 8.76v-17.52zm-20.97.5l1.56-.5-1.57-.5z"/><path d="M1414.07 672.4c13.26 6.24 21.84 20.64 21.84 37.12 0 18.88-11.43 35.04-27.3 39.2l-5.2 1.28h-187.97c-21.84 0-39.52-20.32-39.52-44.8 0-24.48 17.7-44.8 39.53-44.8 1.82 0 2.86 0 4.68.48 6.5-11.84 17.7-18.56 30.17-18.56 3.38 0 6.5.48 9.88 1.6v-1.6c0-29.12 20.54-52.32 46.28-52.32 17.68 0 34.06 12.16 41.6 30.4 6.5-4.32 14.04-6.72 21.84-6.72 24.7 0 44.72 22.72 44.72 50.56.25 2.56 0 5.12-.53 8.16z" stroke="#000" stroke-opacity="0" fill="#00188f"/><path d="M1175.9 694.16h260v46h-260z" fill="#fff" fill-opacity="0"/><use xlink:href="#n" transform="matrix(1,0,0,1,1180.9058333333332,699.1646859083193) translate(0 14.396484375)"/><use xlink:href="#o" transform="matrix(1,0,0,1,1180.9058333333332,699.1646859083193) translate(0 32.396484375)"/><path d="M400.57 958.67h35.34M400.57 958.67h-3" stroke="#000" stroke-width="6" fill="none"/><path d="M435.9 961.67v-6z"/><path d="M495.9 1002.84v98.35h40" stroke="#000" stroke-width="6" fill="none"/><path/><path/><path d="M395.9 862.84v95.83h4.67" stroke="#000" stroke-width="6" fill="none"/><path/><path d="M400.57 958.67l1.24 2.73" stroke="#000" stroke-width="6" fill="none"/><path d="M1309.8 750v343.9h-304.24" stroke="#666" stroke-width="9" fill="none"/><path fill="#666"/><path d="M1004.83 1098.54l-14.27-4.64 14.27-4.63z" fill="#666"/><path d="M1009.33 1104.73L976 1093.9l33.33-10.83z" fill="#666"/><g stroke="#000" stroke-opacity="0" fill="#2a3282"><path d="M820 1033.67v115.5c0 2.35 3.12 4.34 6.7 4.34h26.68c3.6 0 6.7-1.98 6.7-4.33v-44.6l-19.18-9.55-7.48-3.6 7.48-3.6 19.2-9.57v-44.46c0-2.5-3.13-4.48-6.72-4.48H826.7c-3.58 0-6.7 2-6.7 4.35z"/><path d="M877.88 1033.67v54.15h-8.9v-7.33l-22.3 10.92 22.3 10.93v-7.33h8.9v54.15c0 2.35 3.12 4.34 6.7 4.34h26.68c3.6 0 6.7-1.98 6.7-4.33v-44.6l-19.18-9.55-7.5-3.6 7.5-3.6 19.2-9.57v-44.46c0-2.5-3.13-4.48-6.72-4.48h-26.68c-3.58 0-6.7 2-6.7 4.35z"/><path d="M935.9 1033.67v54.15h-8.88v-7.33l-22.3 10.92 22.3 10.93v-7.33h8.9v54.15c0 2.35 3.1 4.34 6.7 4.34h26.67c3.58 0 6.7-1.98 6.7-4.33v-115.5c0-2.36-3.12-4.35-6.7-4.35H942.6c-3.6 0-6.7 2-6.7 4.35z"/></g><path d="M820 1091.42H685.47" stroke="#666" stroke-width="9" fill="none"/><path fill="#666"/><path d="M684.73 1096.05l-14.26-4.63 14.26-4.64z" fill="#666"/><path d="M689.23 1102.25l-33.32-10.83 33.33-10.83z" fill="#666"/><path d="M635.9 542.84V900.7h262.57v99.06" stroke="#666" stroke-width="9" fill="none"/><path fill="#666"/><path d="M898.47 1014.76l-4.64-14.26h9.27z" fill="#666"/><path d="M898.47 1029.32L887.64 996h21.66z" fill="#666"/><path d="M799.7 471.5h37.03V480H799.7v-8.53zM799.7 487.84h37.03v8.43H799.7v-8.43zM799.7 503.88h37.03v8.44H799.7v-8.44z" stroke="#000" stroke-opacity="0" fill="#2a3282"/><path d="M841.77 438.58H789.6c-6.07 0-11.03 6.17-11.03 13.68v75.48c0 7.5 4.96 13.68 11.04 13.68h57.85c6.16 0 11.12-6.17 11.12-13.68v-68.7l-16.8-20.46zm5.68 94.6H789.6c-2.3 0-4.23-2.25-4.23-5.44v-75.48c0-2.88 1.92-5.25 4.24-5.25h48.65V464h13.44v63.97c0 2.98-1.85 5.24-4.25 5.24z" stroke="#000" stroke-opacity="0" fill="#2a3282"/><path d="M695.9 530h240v60h-240z" fill="none"/><use xlink:href="#p" transform="matrix(1,0,0,1,695.9058333333332,530) translate(76.79296875 35.396484375)"/><path d="M635.75 440V150.1h102.6" stroke="#3aa6dd" stroke-width="9" fill="none"/><path fill="#3aa6dd"/><path d="M753.35 150.1l-14.27 4.64v-9.28z" fill="#3aa6dd"/><path d="M767.9 150.1l-33.32 10.83v-21.66z" fill="#3aa6dd"/><path d="M160 81.42h555.9v60H160z" fill="none"/><use xlink:href="#q" transform="matrix(1,0,0,1,159.9999999999999,81.41765704580058) translate(44.628689236111086 36.662326388888886)"/><use xlink:href="#r" transform="matrix(1,0,0,1,159.9999999999999,81.41765704580058) translate(137.97721354166666 36.662326388888886)"/><use xlink:href="#s" transform="matrix(1,0,0,1,159.9999999999999,81.41765704580058) translate(311.3387586805556 36.662326388888886)"/><use xlink:href="#t" transform="matrix(1,0,0,1,159.9999999999999,81.41765704580058) translate(391.3517795138889 36.662326388888886)"/><use xlink:href="#u" transform="matrix(1,0,0,1,159.9999999999999,81.41765704580058) translate(458.029296875 36.662326388888886)"/><path d="M675.9 468H730V340h260.44" stroke="#ef8d22" stroke-width="9" fill="none"/><path fill="#ef8d22"/><path d="M1005.44 340l-14.27 4.64v-9.28z" stroke="#ef8d22" stroke-width="9" fill="#ef8d22"/><path d="M1020 265h535v145h-535z" fill="#fff"/><path d="M1020 265h535v36h-535z" fill="#ccc"/><path d="M1020 337h535v36h-535zM1020 409h535v1h-535z" fill="#f0f0f0"/><path d="M1150.33 265v145M1222.44 265v145M1331.02 265v145M1434.66 265v145M1020 265h535v145h-535z" stroke="#000" stroke-width="2" fill="none"/><use xlink:href="#v" transform="matrix(1,0,0,1,1026,265) translate(37.025 21.6)"/><use xlink:href="#w" transform="matrix(1,0,0,1,1156.3274826789839,265) translate(0.02499999999999858 21.6)"/><use xlink:href="#x" transform="matrix(1,0,0,1,1228.4351039260969,265) translate(-0.42500000000000426 21.6)"/><use xlink:href="#y" transform="matrix(1,0,0,1,1337.0166281755196,265) translate(-0.42500000000000426 21.6)"/><use xlink:href="#z" transform="matrix(1,0,0,1,1440.6558891454965,265) translate(10.024999999999999 21.6)"/><use xlink:href="#A" transform="matrix(1,0,0,1,1026,301) translate(-0.42500000000000426 21.6)"/><use xlink:href="#B" transform="matrix(1,0,0,1,1156.3274826789839,301) translate(3.0249999999999986 21.6)"/><use xlink:href="#C" transform="matrix(1,0,0,1,1228.4351039260969,301) translate(10.549999999999997 21.6)"/><use xlink:href="#D" transform="matrix(1,0,0,1,1228.4351039260969,301) translate(41.5 21.6)"/><use xlink:href="#E" transform="matrix(1,0,0,1,1337.0166281755196,301) translate(6.049999999999997 21.6)"/><use xlink:href="#F" transform="matrix(1,0,0,1,1440.6558891454965,301) translate(16.624999999999993 14.4)"/><use xlink:href="#G" transform="matrix(1,0,0,1,1440.6558891454965,301) translate(86.42500000000001 14.4)"/><use xlink:href="#H" transform="matrix(1,0,0,1,1440.6558891454965,301) translate(40 36)"/><use xlink:href="#I" transform="matrix(1,0,0,1,1026,337) translate(-0.42500000000000426 21.6)"/><use xlink:href="#J" transform="matrix(1,0,0,1,1156.3274826789839,337) translate(3.5249999999999986 21.6)"/><use xlink:href="#C" transform="matrix(1,0,0,1,1228.4351039260969,337) translate(10.549999999999997 21.6)"/><use xlink:href="#D" transform="matrix(1,0,0,1,1228.4351039260969,337) translate(41.5 21.6)"/><use xlink:href="#E" transform="matrix(1,0,0,1,1337.0166281755196,337) translate(6.049999999999997 21.6)"/><use xlink:href="#K" transform="matrix(1,0,0,1,1440.6558891454965,337) translate(19.599999999999994 21.6)"/><path d="M580 260h555.9v60H580z" fill="none"/><g><use xlink:href="#L" transform="matrix(1,0,0,1,580,260) translate(151.31271701388886 36.662326388888886)"/><use xlink:href="#M" transform="matrix(1,0,0,1,580,260) translate(244.66124131944443 36.662326388888886)"/></g><path d="M778.57 508h-73.1" stroke="#b391b5" stroke-width="9" fill="none"/><path fill="#b391b5"/><path d="M704.73 512.64L690.47 508l14.26-4.64z" fill="#b391b5"/><path d="M709.23 518.83L675.9 508l33.33-10.83z" fill="#b391b5"/><path d="M880 470h555.9v60H880z" fill="none"/><g><use xlink:href="#N" transform="matrix(1,0,0,1,880,470) translate(17.95768229166663 36.662326388888886)"/><use xlink:href="#O" transform="matrix(1,0,0,1,880,470) translate(111.3062065972222 36.662326388888886)"/><use xlink:href="#P" transform="matrix(1,0,0,1,880,470) translate(284.66775173611114 36.662326388888886)"/><use xlink:href="#Q" transform="matrix(1,0,0,1,880,470) translate(364.68077256944446 36.662326388888886)"/><use xlink:href="#R" transform="matrix(1,0,0,1,880,470) translate(431.35828993055554 36.662326388888886)"/></g><path d="M24.1 222.84H580v60H24.1z" fill="none"/><g><use xlink:href="#S" transform="matrix(1,0,0,1,24.094166666666638,222.83531409168074) translate(31.293185763888857 36.662326388888886)"/><use xlink:href="#T" transform="matrix(1,0,0,1,24.094166666666638,222.83531409168074) translate(124.64171006944443 36.662326388888886)"/><use xlink:href="#U" transform="matrix(1,0,0,1,24.094166666666638,222.83531409168074) translate(298.00325520833337 36.662326388888886)"/><use xlink:href="#V" transform="matrix(1,0,0,1,24.094166666666638,222.83531409168074) translate(378.0162760416667 36.662326388888886)"/><use xlink:href="#W" transform="matrix(1,0,0,1,24.094166666666638,222.83531409168074) translate(444.69379340277777 36.662326388888886)"/></g><path d="M635.75 440V340h-106.2" stroke="#c92d39" stroke-width="9" fill="none"/><path fill="#c92d39"/><path d="M514.56 340l14.27-4.64v9.28z" stroke="#c92d39" stroke-width="9" fill="#c92d39"/><path d="M478.5 335.96l-36.76-35.75c-2.1-1.94-5.38-1.94-7.32 0l-8.07 7.65 9.58 9.26c.6-.23 1.43-.4 2.28-.4 3.54 0 6.4 2.77 6.4 6.18 0 .8-.17 1.63-.42 2.28l9.33 9c.6-.23 1.52-.4 2.28-.4 3.53 0 6.48 2.77 6.48 6.18 0 3.42-2.95 6.26-6.48 6.26-3.53 0-6.4-2.84-6.4-6.26 0-.8.18-1.62.43-2.2l-8.74-8.44v22.1c2.1.98 3.54 3.17 3.54 5.44 0 3.42-2.86 6.18-6.4 6.18-3.53 0-6.47-2.76-6.47-6.18 0-2.68 1.68-4.87 4.2-5.85v-22.5c-2.52-.74-4.2-3.18-4.2-5.78 0-.8.25-1.63.42-2.2l-9.5-9.26-25.15 24.7c-2.1 1.95-2.1 5.2 0 7l36.75 35.5c2.1 2.03 5.38 2.03 7.23 0l36.75-35.5c2.36-1.96 2.36-5.2.26-7z" stroke="#000" stroke-opacity="0" fill="#c92d39"/><defs><path fill="#666" d="M622-916c-112 2-200 14-200 111 0 90 89 101 168 121 234 58 514 77 514 368C1104-4 751 54 434 5 267-21 161-112 121-270l247-37c24 111 113 145 252 141 114-3 226-12 226-124 0-101-103-113-192-134-225-54-490-76-490-351 0-247 201-328 458-328 245 0 413 88 457 292l-249 26c-16-98-92-133-208-131" id="X"/><path fill="#666" d="M424-1484c-2 206 5 424-8 618h4c67-145 160-234 348-236 251-3 335 167 336 416V0H824v-621c0-150-23-276-173-270-163 7-227 142-227 312V0H143v-1484h281" id="Y"/><path fill="#666" d="M1113-274C1038-96 884 20 626 20c-352 0-526-209-526-566 0-358 185-556 530-556 358 0 496 251 499 615H395c5 180 68 319 245 319 102 0 186-45 208-129zM857-663c-6-177-128-307-315-247-94 30-141 121-145 247h460" id="Z"/><path fill="#666" d="M794-190h353V0H118v-190h395v-1104H223v-190h571v1294" id="aa"/><path fill="#666" d="M101-125v-227l832-324-832-325v-228l1027 391v322" id="ab"/><g id="a"><use transform="matrix(0.010850694444444444,0,0,0.010850694444444444,0,0)" xlink:href="#X"/><use transform="matrix(0.010850694444444444,0,0,0.010850694444444444,13.335503472222221,0)" xlink:href="#Y"/><use transform="matrix(0.010850694444444444,0,0,0.010850694444444444,26.671006944444443,0)" xlink:href="#Z"/><use transform="matrix(0.010850694444444444,0,0,0.010850694444444444,40.006510416666664,0)" xlink:href="#aa"/><use transform="matrix(0.010850694444444444,0,0,0.010850694444444444,53.342013888888886,0)" xlink:href="#aa"/><use transform="matrix(0.010850694444444444,0,0,0.010850694444444444,66.67751736111111,0)" xlink:href="#ab"/></g><path fill="#666" d="M875-1102c70 0 148 7 206 17v237c-110-17-267-37-359 15-123 69-192 207-192 395V0H250c-10-367 32-789-52-1082h271c19 69 36 149 46 228h4c52-151 151-250 356-248" id="ac"/><path fill="#666" d="M844-1321c-130 0-195 53-191 182v57h443v190H653V0H373v-892H117v-190h256v-83c5-247 162-348 422-349 120-1 232 13 327 28v184c-84-10-183-19-278-19" id="ad"/><path fill="#666" d="M1109-360C1066-122 902 20 624 20c-347 0-514-209-514-555 0-353 168-567 518-567 270 0 425 136 473 361l-283 14c-16-106-75-183-196-182-75 0-130 31-165 93s-52 152-52 270c0 249 74 374 221 374 120 0 188-82 201-201" id="ae"/><path fill="#666" d="M324-409v-244h580v244H324" id="af"/><path fill="#666" d="M616-1102c361 0 521 202 521 560 0 354-171 562-527 562C259 20 92-192 92-542c0-351 169-560 524-560zm-9 930c200-2 236-165 236-370 0-199-27-367-223-367-195 0-233 146-233 367 0 129 18 223 55 282s92 88 165 88" id="ag"/><path fill="#666" d="M864 0L575-490l-121 84V0H173v-1484h281v850l386-448h302L762-660 1171 0H864" id="ah"/><g id="b"><use transform="matrix(0.010850694444444444,0,0,0.010850694444444444,0,0)" xlink:href="#ac"/><use transform="matrix(0.010850694444444444,0,0,0.010850694444444444,13.335503472222221,0)" xlink:href="#Z"/><use transform="matrix(0.010850694444444444,0,0,0.010850694444444444,26.671006944444443,0)" xlink:href="#ad"/><use transform="matrix(0.010850694444444444,0,0,0.010850694444444444,40.006510416666664,0)" xlink:href="#ae"/><use transform="matrix(0.010850694444444444,0,0,0.010850694444444444,53.342013888888886,0)" xlink:href="#Y"/><use transform="matrix(0.010850694444444444,0,0,0.010850694444444444,66.67751736111111,0)" xlink:href="#Z"/><use transform="matrix(0.010850694444444444,0,0,0.010850694444444444,80.01302083333334,0)" xlink:href="#ad"/><use transform="matrix(0.010850694444444444,0,0,0.010850694444444444,93.34852430555557,0)" xlink:href="#af"/><use transform="matrix(0.010850694444444444,0,0,0.010850694444444444,106.6840277777778,0)" xlink:href="#ae"/><use transform="matrix(0.010850694444444444,0,0,0.010850694444444444,120.01953125000003,0)" xlink:href="#ag"/><use transform="matrix(0.010850694444444444,0,0,0.010850694444444444,133.35503472222226,0)" xlink:href="#ag"/><use transform="matrix(0.010850694444444444,0,0,0.010850694444444444,146.69053819444449,0)" xlink:href="#ah"/></g><path fill="#666" d="M874 0L612-392 348 0H49l406-559-387-523h303l241 354 240-354h305L770-562 1179 0H874" id="ai"/><path fill="#666" d="M471 20c-247 0-336-169-336-415v-687h281v607c4 148 31 285 172 285 152 0 207-150 207-312v-580h281c4 359-9 736 8 1082H816c-7-63-11-146-12-215h-5C736-76 644 20 471 20" id="aj"/><path fill="#666" d="M711 13c-250 0-386-99-385-349l2-556H161v-190h181l88-282h176v282h385v190H606v530c-10 130 45 186 174 184 91-2 176-11 255-27v186C933-1 833 13 711 13" id="ak"/><g id="c"><use transform="matrix(0.010850694444444444,0,0,0.010850694444444444,0,0)" xlink:href="#af"/><use transform="matrix(0.010850694444444444,0,0,0.010850694444444444,13.335503472222221,0)" xlink:href="#af"/><use transform="matrix(0.010850694444444444,0,0,0.010850694444444444,26.671006944444443,0)" xlink:href="#Z"/><use transform="matrix(0.010850694444444444,0,0,0.010850694444444444,40.006510416666664,0)" xlink:href="#ai"/><use transform="matrix(0.010850694444444444,0,0,0.010850694444444444,53.342013888888886,0)" xlink:href="#Z"/><use transform="matrix(0.010850694444444444,0,0,0.010850694444444444,66.67751736111111,0)" xlink:href="#ae"/><use transform="matrix(0.010850694444444444,0,0,0.010850694444444444,80.01302083333334,0)" xlink:href="#aj"/><use transform="matrix(0.010850694444444444,0,0,0.010850694444444444,93.34852430555557,0)" xlink:href="#ak"/><use transform="matrix(0.010850694444444444,0,0,0.010850694444444444,106.6840277777778,0)" xlink:href="#Z"/></g><path fill="#666" d="M621-530c0 421 127 700 301 955H641C466 173 344-110 344-531s122-702 297-953h281c-174 254-301 534-301 954" id="al"/><path fill="#666" d="M885-531c0 421-122 704-297 956H307c174-255 301-534 301-955 0-420-127-700-301-954h281c175 251 297 532 297 953" id="am"/><g id="d"><use transform="matrix(0.010850694444444444,0,0,0.010850694444444444,0,0)" xlink:href="#al"/><use transform="matrix(0.010850694444444444,0,0,0.010850694444444444,13.335503472222221,0)" xlink:href="#af"/><use transform="matrix(0.010850694444444444,0,0,0.010850694444444444,26.671006944444443,0)" xlink:href="#Z"/><use transform="matrix(0.010850694444444444,0,0,0.010850694444444444,40.006510416666664,0)" xlink:href="#am"/></g><path d="M1109-360C1066-122 902 20 624 20c-347 0-514-209-514-555 0-353 168-567 518-567 270 0 425 136 473 361l-283 14c-16-106-75-183-196-182-75 0-130 31-165 93s-52 152-52 270c0 249 74 374 221 374 120 0 188-82 201-201" id="an"/><path d="M616-1102c361 0 521 202 521 560 0 354-171 562-527 562C259 20 92-192 92-542c0-351 169-560 524-560zm-9 930c200-2 236-165 236-370 0-199-27-367-223-367-195 0-233 146-233 367 0 129 18 223 55 282s92 88 165 88" id="ao"/><path d="M934-1102c199 0 220 177 220 381V0H926c-2-260 10-533-4-785-4-72-14-138-83-138-34 0-61 27-81 81s-29 134-29 241V0H501c-2-260 9-533-5-785-4-72-13-138-82-138-46 0-65 47-80 93-21 67-30 155-30 248V0H75c-3-360 6-732-6-1082h209c6 50 3 123 8 175 36-100 83-195 216-195 135 0 166 79 196 196 42-105 93-196 236-196" id="ap"/><path d="M775-193C708-75 621 20 439 20 226 20 106-93 106-306c0-251 170-341 417-346l223-4c4-143-12-264-148-264-103 0-141 58-150 153l-293-14c37-219 194-321 455-321 263 0 418 130 417 390v392c1 84 5 161 89 160 21 0 42-2 62-6v152c-57 15-108 27-180 26-145 0-202-73-217-205h-6zm-256 17c168 0 234-139 227-325-166 4-347-25-347 173 0 94 33 152 120 152" id="aq"/><path d="M768-1103c247 0 336 167 336 416V0H824v-619c-3-164-24-273-171-273-164 0-229 142-229 312V0H143c-4-359 9-736-8-1082h268c7 63 12 146 13 215h4c67-145 160-236 348-236" id="ar"/><path d="M802-909c-3-189-2-383-2-575h281v1248c-1 83 4 168 8 236H817c-9-50-14-117-15-176h-4C735-49 651 20 482 20 191 20 97-238 97-539c0-243 66-432 221-519 50-28 108-42 175-42 162 2 253 78 309 191zm-70 658c91-113 93-462 2-584-46-61-145-100-224-53-96 56-119 190-120 349 0 123 17 214 52 275 46 82 130 115 222 74 25-12 46-33 68-61" id="as"/><path d="M622-916c-112 2-200 14-200 111 0 90 89 101 168 121 234 58 514 77 514 368C1104-4 751 54 434 5 267-21 161-112 121-270l247-37c24 111 113 145 252 141 114-3 226-12 226-124 0-101-103-113-192-134-225-54-490-76-490-351 0-247 201-328 458-328 245 0 413 88 457 292l-249 26c-16-98-92-133-208-131" id="at"/><g id="e"><use transform="matrix(0.0087890625,0,0,0.0087890625,0,0)" xlink:href="#an"/><use transform="matrix(0.0087890625,0,0,0.0087890625,10.8017578125,0)" xlink:href="#ao"/><use transform="matrix(0.0087890625,0,0,0.0087890625,21.603515625,0)" xlink:href="#ap"/><use transform="matrix(0.0087890625,0,0,0.0087890625,32.4052734375,0)" xlink:href="#ap"/><use transform="matrix(0.0087890625,0,0,0.0087890625,43.20703125,0)" xlink:href="#aq"/><use transform="matrix(0.0087890625,0,0,0.0087890625,54.0087890625,0)" xlink:href="#ar"/><use transform="matrix(0.0087890625,0,0,0.0087890625,64.810546875,0)" xlink:href="#as"/><use transform="matrix(0.0087890625,0,0,0.0087890625,75.6123046875,0)" xlink:href="#at"/></g><path fill="#fff" d="M427-171c3 195 2 397 2 596H148V-846c1-83-4-168-8-236h272c10 49 14 118 15 176h4c59-114 151-197 316-197 291 0 385 259 385 560 0 243-65 433-220 521-50 28-109 42-176 42-162-2-253-78-309-191zm69-661c-91 113-92 463-1 586 46 62 145 101 225 54 96-57 118-191 119-351 0-123-18-215-53-276-46-82-128-115-220-74-25 12-48 33-70 61" id="au"/><path fill="#fff" d="M875-1102c70 0 148 7 206 17v237c-110-17-267-37-359 15-123 69-192 207-192 395V0H250c-10-367 32-789-52-1082h271c19 69 36 149 46 228h4c52-151 151-250 356-248" id="av"/><path fill="#fff" d="M794-190h353V0H118v-190h395v-702H223v-190h571v892zM513-1277v-207h281v207H513" id="aw"/><path fill="#fff" d="M934-1102c199 0 220 177 220 381V0H926c-2-260 10-533-4-785-4-72-14-138-83-138-34 0-61 27-81 81s-29 134-29 241V0H501c-2-260 9-533-5-785-4-72-13-138-82-138-46 0-65 47-80 93-21 67-30 155-30 248V0H75c-3-360 6-732-6-1082h209c6 50 3 123 8 175 36-100 83-195 216-195 135 0 166 79 196 196 42-105 93-196 236-196" id="ax"/><path fill="#fff" d="M775-193C708-75 621 20 439 20 226 20 106-93 106-306c0-251 170-341 417-346l223-4c4-143-12-264-148-264-103 0-141 58-150 153l-293-14c37-219 194-321 455-321 263 0 418 130 417 390v392c1 84 5 161 89 160 21 0 42-2 62-6v152c-57 15-108 27-180 26-145 0-202-73-217-205h-6zm-256 17c168 0 234-139 227-325-166 4-347-25-347 173 0 94 33 152 120 152" id="ay"/><path fill="#fff" d="M143 212c82 12 185 12 233-31 50-45 83-117 110-192L38-1082h297c100 284 211 557 291 861 72-305 176-578 270-861h294L742 57c-80 192-156 368-417 368-60 0-131-4-182-13V212" id="az"/><g id="f"><use transform="matrix(0.0087890625,0,0,0.0087890625,0,0)" xlink:href="#au"/><use transform="matrix(0.0087890625,0,0,0.0087890625,10.8017578125,0)" xlink:href="#av"/><use transform="matrix(0.0087890625,0,0,0.0087890625,21.603515625,0)" xlink:href="#aw"/><use transform="matrix(0.0087890625,0,0,0.0087890625,32.4052734375,0)" xlink:href="#ax"/><use transform="matrix(0.0087890625,0,0,0.0087890625,43.20703125,0)" xlink:href="#ay"/><use transform="matrix(0.0087890625,0,0,0.0087890625,54.0087890625,0)" xlink:href="#av"/><use transform="matrix(0.0087890625,0,0,0.0087890625,64.810546875,0)" xlink:href="#az"/></g><path fill="#fff" d="M1113-274C1038-96 884 20 626 20c-352 0-526-209-526-566 0-358 185-556 530-556 358 0 496 251 499 615H395c5 180 68 319 245 319 102 0 186-45 208-129zM857-663c-6-177-128-307-315-247-94 30-141 121-145 247h460" id="aA"/><path fill="#fff" d="M844-1321c-130 0-195 53-191 182v57h443v190H653V0H373v-892H117v-190h256v-83c5-247 162-348 422-349 120-1 232 13 327 28v184c-84-10-183-19-278-19" id="aB"/><path fill="#fff" d="M768-1103c247 0 336 167 336 416V0H824v-619c-3-164-24-273-171-273-164 0-229 142-229 312V0H143c-4-359 9-736-8-1082h268c7 63 12 146 13 215h4c67-145 160-236 348-236" id="aC"/><path fill="#fff" d="M1109-360C1066-122 902 20 624 20c-347 0-514-209-514-555 0-353 168-567 518-567 270 0 425 136 473 361l-283 14c-16-106-75-183-196-182-75 0-130 31-165 93s-52 152-52 270c0 249 74 374 221 374 120 0 188-82 201-201" id="aD"/><path fill="#fff" d="M324-409v-244h580v244H324" id="aE"/><path fill="#fff" d="M864 0L575-490l-121 84V0H173v-1484h281v850l386-448h302L762-660 1171 0H864" id="aF"/><g id="g"><use transform="matrix(0.006510416666666667,0,0,0.006510416666666667,0,0)" xlink:href="#av"/><use transform="matrix(0.006510416666666667,0,0,0.006510416666666667,8.001302083333334,0)" xlink:href="#aA"/><use transform="matrix(0.006510416666666667,0,0,0.006510416666666667,16.002604166666668,0)" xlink:href="#aB"/><use transform="matrix(0.006510416666666667,0,0,0.006510416666666667,24.00390625,0)" xlink:href="#aA"/><use transform="matrix(0.006510416666666667,0,0,0.006510416666666667,32.005208333333336,0)" xlink:href="#av"/><use transform="matrix(0.006510416666666667,0,0,0.006510416666666667,40.00651041666667,0)" xlink:href="#aA"/><use transform="matrix(0.006510416666666667,0,0,0.006510416666666667,48.00781250000001,0)" xlink:href="#aC"/><use transform="matrix(0.006510416666666667,0,0,0.006510416666666667,56.00911458333335,0)" xlink:href="#aD"/><use transform="matrix(0.006510416666666667,0,0,0.006510416666666667,64.01041666666667,0)" xlink:href="#aA"/><use transform="matrix(0.006510416666666667,0,0,0.006510416666666667,72.01171875,0)" xlink:href="#aE"/><use transform="matrix(0.006510416666666667,0,0,0.006510416666666667,80.01302083333333,0)" xlink:href="#aF"/><use transform="matrix(0.006510416666666667,0,0,0.006510416666666667,88.01432291666666,0)" xlink:href="#aA"/><use transform="matrix(0.006510416666666667,0,0,0.006510416666666667,96.01562499999999,0)" xlink:href="#az"/></g><path d="M844-1321c-130 0-195 53-191 182v57h443v190H653V0H373v-892H117v-190h256v-83c5-247 162-348 422-349 120-1 232 13 327 28v184c-84-10-183-19-278-19" id="aG"/><path d="M1108-33c-3 314-178 467-492 467-243 0-400-94-447-291l281-33c17 79 82 141 174 141 176 0 212-155 205-347-2-40 5-80 0-115C773-85 665-12 501-12c-288 0-377-242-377-538 0-242 65-426 223-510 50-26 108-39 175-39 160 0 253 78 307 191h5c1-58 5-125 14-174h266c-12 335-3 703-6 1049zM811-384c25-82 27-259 1-342-30-99-77-180-190-180-172 0-205 171-205 356 0 116 18 202 54 258 48 76 129 107 221 70 62-25 96-86 119-162" id="aH"/><path d="M470 0v-305h289V0H470" id="aI"/><path d="M143 212c82 12 185 12 233-31 50-45 83-117 110-192L38-1082h297c100 284 211 557 291 861 72-305 176-578 270-861h294L742 57c-80 192-156 368-417 368-60 0-131-4-182-13V212" id="aJ"/><path d="M794-190h353V0H118v-190h395v-1104H223v-190h571v1294" id="aK"/><g id="h"><use transform="matrix(0.008680555555555556,0,0,0.008680555555555556,0,0)" xlink:href="#an"/><use transform="matrix(0.008680555555555556,0,0,0.008680555555555556,10.668402777777779,0)" xlink:href="#aG"/><use transform="matrix(0.008680555555555556,0,0,0.008680555555555556,21.336805555555557,0)" xlink:href="#aH"/><use transform="matrix(0.008680555555555556,0,0,0.008680555555555556,32.005208333333336,0)" xlink:href="#aI"/><use transform="matrix(0.008680555555555556,0,0,0.008680555555555556,42.673611111111114,0)" xlink:href="#aJ"/><use transform="matrix(0.008680555555555556,0,0,0.008680555555555556,53.34201388888889,0)" xlink:href="#aq"/><use transform="matrix(0.008680555555555556,0,0,0.008680555555555556,64.01041666666667,0)" xlink:href="#ap"/><use transform="matrix(0.008680555555555556,0,0,0.008680555555555556,74.67881944444446,0)" xlink:href="#aK"/></g><path d="M794-190h353V0H118v-190h395v-702H223v-190h571v892zM513-1277v-207h281v207H513" id="aL"/><g id="i"><use transform="matrix(0.008680555555555556,0,0,0.008680555555555556,0,0)" xlink:href="#an"/><use transform="matrix(0.008680555555555556,0,0,0.008680555555555556,10.668402777777779,0)" xlink:href="#aG"/><use transform="matrix(0.008680555555555556,0,0,0.008680555555555556,21.336805555555557,0)" xlink:href="#aH"/><use transform="matrix(0.008680555555555556,0,0,0.008680555555555556,32.005208333333336,0)" xlink:href="#aI"/><use transform="matrix(0.008680555555555556,0,0,0.008680555555555556,42.673611111111114,0)" xlink:href="#aL"/><use transform="matrix(0.008680555555555556,0,0,0.008680555555555556,53.34201388888889,0)" xlink:href="#ar"/><use transform="matrix(0.008680555555555556,0,0,0.008680555555555556,64.01041666666667,0)" xlink:href="#aL"/></g><path d="M711 13c-250 0-386-99-385-349l2-556H161v-190h181l88-282h176v282h385v190H606v530c-10 130 45 186 174 184 91-2 176-11 255-27v186C933-1 833 13 711 13" id="aM"/><path d="M1113-274C1038-96 884 20 626 20c-352 0-526-209-526-566 0-358 185-556 530-556 358 0 496 251 499 615H395c5 180 68 319 245 319 102 0 186-45 208-129zM857-663c-6-177-128-307-315-247-94 30-141 121-145 247h460" id="aN"/><path d="M875-1102c70 0 148 7 206 17v237c-110-17-267-37-359 15-123 69-192 207-192 395V0H250c-10-367 32-789-52-1082h271c19 69 36 149 46 228h4c52-151 151-250 356-248" id="aO"/><g id="j"><use transform="matrix(0.0087890625,0,0,0.0087890625,0,0)" xlink:href="#ap"/><use transform="matrix(0.0087890625,0,0,0.0087890625,10.8017578125,0)" xlink:href="#aq"/><use transform="matrix(0.0087890625,0,0,0.0087890625,21.603515625,0)" xlink:href="#at"/><use transform="matrix(0.0087890625,0,0,0.0087890625,32.4052734375,0)" xlink:href="#aM"/><use transform="matrix(0.0087890625,0,0,0.0087890625,43.20703125,0)" xlink:href="#aN"/><use transform="matrix(0.0087890625,0,0,0.0087890625,54.0087890625,0)" xlink:href="#aO"/><use transform="matrix(0.0087890625,0,0,0.0087890625,64.810546875,0)" xlink:href="#aI"/><use transform="matrix(0.0087890625,0,0,0.0087890625,75.6123046875,0)" xlink:href="#aJ"/><use transform="matrix(0.0087890625,0,0,0.0087890625,86.4140625,0)" xlink:href="#aq"/><use transform="matrix(0.0087890625,0,0,0.0087890625,97.2158203125,0)" xlink:href="#ap"/><use transform="matrix(0.0087890625,0,0,0.0087890625,108.017578125,0)" xlink:href="#aK"/></g><g id="k"><use transform="matrix(0.0087890625,0,0,0.0087890625,0,0)" xlink:href="#av"/><use transform="matrix(0.0087890625,0,0,0.0087890625,10.8017578125,0)" xlink:href="#aA"/><use transform="matrix(0.0087890625,0,0,0.0087890625,21.603515625,0)" xlink:href="#aB"/><use transform="matrix(0.0087890625,0,0,0.0087890625,32.4052734375,0)" xlink:href="#aA"/><use transform="matrix(0.0087890625,0,0,0.0087890625,43.20703125,0)" xlink:href="#av"/><use transform="matrix(0.0087890625,0,0,0.0087890625,54.0087890625,0)" xlink:href="#aA"/><use transform="matrix(0.0087890625,0,0,0.0087890625,64.810546875,0)" xlink:href="#aC"/><use transform="matrix(0.0087890625,0,0,0.0087890625,75.6123046875,0)" xlink:href="#aD"/><use transform="matrix(0.0087890625,0,0,0.0087890625,86.4140625,0)" xlink:href="#aA"/><use transform="matrix(0.0087890625,0,0,0.0087890625,97.2158203125,0)" xlink:href="#aE"/></g><path fill="#fff" d="M802-909c-3-189-2-383-2-575h281v1248c-1 83 4 168 8 236H817c-9-50-14-117-15-176h-4C735-49 651 20 482 20 191 20 97-238 97-539c0-243 66-432 221-519 50-28 108-42 175-42 162 2 253 78 309 191zm-70 658c91-113 93-462 2-584-46-61-145-100-224-53-96 56-119 190-120 349 0 123 17 214 52 275 46 82 130 115 222 74 25-12 46-33 68-61" id="aP"/><path fill="#fff" d="M711 13c-250 0-386-99-385-349l2-556H161v-190h181l88-282h176v282h385v190H606v530c-10 130 45 186 174 184 91-2 176-11 255-27v186C933-1 833 13 711 13" id="aQ"/><path fill="#fff" d="M616-1102c361 0 521 202 521 560 0 354-171 562-527 562C259 20 92-192 92-542c0-351 169-560 524-560zm-9 930c200-2 236-165 236-370 0-199-27-367-223-367-195 0-233 146-233 367 0 129 18 223 55 282s92 88 165 88" id="aR"/><g id="l"><use transform="matrix(0.0087890625,0,0,0.0087890625,0,0)" xlink:href="#aP"/><use transform="matrix(0.0087890625,0,0,0.0087890625,10.8017578125,0)" xlink:href="#aw"/><use transform="matrix(0.0087890625,0,0,0.0087890625,21.603515625,0)" xlink:href="#av"/><use transform="matrix(0.0087890625,0,0,0.0087890625,32.4052734375,0)" xlink:href="#aA"/><use transform="matrix(0.0087890625,0,0,0.0087890625,43.20703125,0)" xlink:href="#aD"/><use transform="matrix(0.0087890625,0,0,0.0087890625,54.0087890625,0)" xlink:href="#aQ"/><use transform="matrix(0.0087890625,0,0,0.0087890625,64.810546875,0)" xlink:href="#aR"/><use transform="matrix(0.0087890625,0,0,0.0087890625,75.6123046875,0)" xlink:href="#av"/><use transform="matrix(0.0087890625,0,0,0.0087890625,86.4140625,0)" xlink:href="#az"/></g><path fill="#fff" d="M1108-33c-3 314-178 467-492 467-243 0-400-94-447-291l281-33c17 79 82 141 174 141 176 0 212-155 205-347-2-40 5-80 0-115C773-85 665-12 501-12c-288 0-377-242-377-538 0-242 65-426 223-510 50-26 108-39 175-39 160 0 253 78 307 191h5c1-58 5-125 14-174h266c-12 335-3 703-6 1049zM811-384c25-82 27-259 1-342-30-99-77-180-190-180-172 0-205 171-205 356 0 116 18 202 54 258 48 76 129 107 221 70 62-25 96-86 119-162" id="aS"/><path fill="#fff" d="M424-1484c-2 206 5 424-8 618h4c67-145 160-234 348-236 251-3 335 167 336 416V0H824v-621c0-150-23-276-173-270-163 7-227 142-227 312V0H143v-1484h281" id="aT"/><path fill="#fff" d="M471 20c-247 0-336-169-336-415v-687h281v607c4 148 31 285 172 285 152 0 207-150 207-312v-580h281c4 359-9 736 8 1082H816c-7-63-11-146-12-215h-5C736-76 644 20 471 20" id="aU"/><path fill="#fff" d="M429-1484c1 190-1 388 0 572 54-116 155-191 317-191 300 0 386 257 386 563 0 241-73 429-226 518-49 28-106 42-169 42-162 0-251-81-306-196h-4c-1 59-5 127-15 176H140c4-67 9-153 8-236v-1248h281zm66 648c-93 114-92 466 1 585 35 45 77 79 142 79 64 0 112-31 148-92 69-115 68-440-2-561-39-68-131-111-221-70-25 11-46 32-68 59" id="aV"/><g id="m"><use transform="matrix(0.0087890625,0,0,0.0087890625,0,0)" xlink:href="#aS"/><use transform="matrix(0.0087890625,0,0,0.0087890625,10.8017578125,0)" xlink:href="#aw"/><use transform="matrix(0.0087890625,0,0,0.0087890625,21.603515625,0)" xlink:href="#aQ"/><use transform="matrix(0.0087890625,0,0,0.0087890625,32.4052734375,0)" xlink:href="#aT"/><use transform="matrix(0.0087890625,0,0,0.0087890625,43.20703125,0)" xlink:href="#aU"/><use transform="matrix(0.0087890625,0,0,0.0087890625,54.0087890625,0)" xlink:href="#aV"/><use transform="matrix(0.0087890625,0,0,0.0087890625,64.810546875,0)" xlink:href="#aE"/></g><path fill="#fff" d="M470 0v-305h289V0H470zm0-780v-305h289v305H470" id="aW"/><path fill="#fff" d="M89 20l821-1504h228L321 20H89" id="aX"/><path fill="#fff" d="M470 0v-305h289V0H470" id="aY"/><path fill="#fff" d="M622-916c-112 2-200 14-200 111 0 90 89 101 168 121 234 58 514 77 514 368C1104-4 751 54 434 5 267-21 161-112 121-270l247-37c24 111 113 145 252 141 114-3 226-12 226-124 0-101-103-113-192-134-225-54-490-76-490-351 0-247 201-328 458-328 245 0 413 88 457 292l-249 26c-16-98-92-133-208-131" id="aZ"/><path fill="#fff" d="M794-190h353V0H118v-190h395v-1104H223v-190h571v1294" id="ba"/><g id="n"><use transform="matrix(0.0087890625,0,0,0.0087890625,0,0)" xlink:href="#aB"/><use transform="matrix(0.0087890625,0,0,0.0087890625,10.8017578125,0)" xlink:href="#aQ"/><use transform="matrix(0.0087890625,0,0,0.0087890625,21.603515625,0)" xlink:href="#au"/><use transform="matrix(0.0087890625,0,0,0.0087890625,32.4052734375,0)" xlink:href="#aW"/><use transform="matrix(0.0087890625,0,0,0.0087890625,43.20703125,0)" xlink:href="#aX"/><use transform="matrix(0.0087890625,0,0,0.0087890625,54.0087890625,0)" xlink:href="#aX"/><use transform="matrix(0.0087890625,0,0,0.0087890625,64.810546875,0)" xlink:href="#aB"/><use transform="matrix(0.0087890625,0,0,0.0087890625,75.6123046875,0)" xlink:href="#aQ"/><use transform="matrix(0.0087890625,0,0,0.0087890625,86.4140625,0)" xlink:href="#au"/><use transform="matrix(0.0087890625,0,0,0.0087890625,97.2158203125,0)" xlink:href="#aY"/><use transform="matrix(0.0087890625,0,0,0.0087890625,108.017578125,0)" xlink:href="#aZ"/><use transform="matrix(0.0087890625,0,0,0.0087890625,118.8193359375,0)" xlink:href="#aR"/><use transform="matrix(0.0087890625,0,0,0.0087890625,129.62109375,0)" xlink:href="#ax"/><use transform="matrix(0.0087890625,0,0,0.0087890625,140.4228515625,0)" xlink:href="#aA"/><use transform="matrix(0.0087890625,0,0,0.0087890625,151.224609375,0)" xlink:href="#au"/><use transform="matrix(0.0087890625,0,0,0.0087890625,162.0263671875,0)" xlink:href="#ba"/><use transform="matrix(0.0087890625,0,0,0.0087890625,172.828125,0)" xlink:href="#ay"/><use transform="matrix(0.0087890625,0,0,0.0087890625,183.6298828125,0)" xlink:href="#aD"/><use transform="matrix(0.0087890625,0,0,0.0087890625,194.431640625,0)" xlink:href="#aA"/><use transform="matrix(0.0087890625,0,0,0.0087890625,205.2333984375,0)" xlink:href="#aY"/><use transform="matrix(0.0087890625,0,0,0.0087890625,216.03515625,0)" xlink:href="#aR"/><use transform="matrix(0.0087890625,0,0,0.0087890625,226.8369140625,0)" xlink:href="#av"/><use transform="matrix(0.0087890625,0,0,0.0087890625,237.638671875,0)" xlink:href="#aS"/></g><path d="M1028 0H784c-56-191-119-378-170-573C562-377 495-191 437 0H194L11-1082h228c32 239 67 472 95 714 4 40 7 80 7 119 53-195 119-378 177-568h193c56 190 120 371 169 568-1-79 11-158 21-226l91-607h226" id="bb"/><g id="p"><use transform="matrix(0.0087890625,0,0,0.0087890625,0,0)" xlink:href="#ar"/><use transform="matrix(0.0087890625,0,0,0.0087890625,10.8017578125,0)" xlink:href="#aN"/><use transform="matrix(0.0087890625,0,0,0.0087890625,21.603515625,0)" xlink:href="#bb"/><use transform="matrix(0.0087890625,0,0,0.0087890625,32.4052734375,0)" xlink:href="#aI"/><use transform="matrix(0.0087890625,0,0,0.0087890625,43.20703125,0)" xlink:href="#aJ"/><use transform="matrix(0.0087890625,0,0,0.0087890625,54.0087890625,0)" xlink:href="#aq"/><use transform="matrix(0.0087890625,0,0,0.0087890625,64.810546875,0)" xlink:href="#ap"/><use transform="matrix(0.0087890625,0,0,0.0087890625,75.6123046875,0)" xlink:href="#aK"/></g><path fill="#3aa6dd" d="M622-916c-112 2-200 14-200 111 0 90 89 101 168 121 234 58 514 77 514 368C1104-4 751 54 434 5 267-21 161-112 121-270l247-37c24 111 113 145 252 141 114-3 226-12 226-124 0-101-103-113-192-134-225-54-490-76-490-351 0-247 201-328 458-328 245 0 413 88 457 292l-249 26c-16-98-92-133-208-131" id="bc"/><path fill="#3aa6dd" d="M424-1484c-2 206 5 424-8 618h4c67-145 160-234 348-236 251-3 335 167 336 416V0H824v-621c0-150-23-276-173-270-163 7-227 142-227 312V0H143v-1484h281" id="bd"/><path fill="#3aa6dd" d="M1113-274C1038-96 884 20 626 20c-352 0-526-209-526-566 0-358 185-556 530-556 358 0 496 251 499 615H395c5 180 68 319 245 319 102 0 186-45 208-129zM857-663c-6-177-128-307-315-247-94 30-141 121-145 247h460" id="be"/><path fill="#3aa6dd" d="M794-190h353V0H118v-190h395v-1104H223v-190h571v1294" id="bf"/><path fill="#3aa6dd" d="M101-125v-227l832-324-832-325v-228l1027 391v322" id="bg"/><g id="q"><use transform="matrix(0.010850694444444444,0,0,0.010850694444444444,0,0)" xlink:href="#bc"/><use transform="matrix(0.010850694444444444,0,0,0.010850694444444444,13.335503472222221,0)" xlink:href="#bd"/><use transform="matrix(0.010850694444444444,0,0,0.010850694444444444,26.671006944444443,0)" xlink:href="#be"/><use transform="matrix(0.010850694444444444,0,0,0.010850694444444444,40.006510416666664,0)" xlink:href="#bf"/><use transform="matrix(0.010850694444444444,0,0,0.010850694444444444,53.342013888888886,0)" xlink:href="#bf"/><use transform="matrix(0.010850694444444444,0,0,0.010850694444444444,66.67751736111111,0)" xlink:href="#bg"/></g><path fill="#3aa6dd" d="M875-1102c70 0 148 7 206 17v237c-110-17-267-37-359 15-123 69-192 207-192 395V0H250c-10-367 32-789-52-1082h271c19 69 36 149 46 228h4c52-151 151-250 356-248" id="bh"/><path fill="#3aa6dd" d="M844-1321c-130 0-195 53-191 182v57h443v190H653V0H373v-892H117v-190h256v-83c5-247 162-348 422-349 120-1 232 13 327 28v184c-84-10-183-19-278-19" id="bi"/><path fill="#3aa6dd" d="M1109-360C1066-122 902 20 624 20c-347 0-514-209-514-555 0-353 168-567 518-567 270 0 425 136 473 361l-283 14c-16-106-75-183-196-182-75 0-130 31-165 93s-52 152-52 270c0 249 74 374 221 374 120 0 188-82 201-201" id="bj"/><path fill="#3aa6dd" d="M324-409v-244h580v244H324" id="bk"/><path fill="#3aa6dd" d="M616-1102c361 0 521 202 521 560 0 354-171 562-527 562C259 20 92-192 92-542c0-351 169-560 524-560zm-9 930c200-2 236-165 236-370 0-199-27-367-223-367-195 0-233 146-233 367 0 129 18 223 55 282s92 88 165 88" id="bl"/><path fill="#3aa6dd" d="M864 0L575-490l-121 84V0H173v-1484h281v850l386-448h302L762-660 1171 0H864" id="bm"/><g id="r"><use transform="matrix(0.010850694444444444,0,0,0.010850694444444444,0,0)" xlink:href="#bh"/><use transform="matrix(0.010850694444444444,0,0,0.010850694444444444,13.335503472222221,0)" xlink:href="#be"/><use transform="matrix(0.010850694444444444,0,0,0.010850694444444444,26.671006944444443,0)" xlink:href="#bi"/><use transform="matrix(0.010850694444444444,0,0,0.010850694444444444,40.006510416666664,0)" xlink:href="#bj"/><use transform="matrix(0.010850694444444444,0,0,0.010850694444444444,53.342013888888886,0)" xlink:href="#bd"/><use transform="matrix(0.010850694444444444,0,0,0.010850694444444444,66.67751736111111,0)" xlink:href="#be"/><use transform="matrix(0.010850694444444444,0,0,0.010850694444444444,80.01302083333334,0)" xlink:href="#bi"/><use transform="matrix(0.010850694444444444,0,0,0.010850694444444444,93.34852430555557,0)" xlink:href="#bk"/><use transform="matrix(0.010850694444444444,0,0,0.010850694444444444,106.6840277777778,0)" xlink:href="#bj"/><use transform="matrix(0.010850694444444444,0,0,0.010850694444444444,120.01953125000003,0)" xlink:href="#bl"/><use transform="matrix(0.010850694444444444,0,0,0.010850694444444444,133.35503472222226,0)" xlink:href="#bl"/><use transform="matrix(0.010850694444444444,0,0,0.010850694444444444,146.69053819444449,0)" xlink:href="#bm"/></g><path fill="#3aa6dd" d="M1108-33c-3 314-178 467-492 467-243 0-400-94-447-291l281-33c17 79 82 141 174 141 176 0 212-155 205-347-2-40 5-80 0-115C773-85 665-12 501-12c-288 0-377-242-377-538 0-242 65-426 223-510 50-26 108-39 175-39 160 0 253 78 307 191h5c1-58 5-125 14-174h266c-12 335-3 703-6 1049zM811-384c25-82 27-259 1-342-30-99-77-180-190-180-172 0-205 171-205 356 0 116 18 202 54 258 48 76 129 107 221 70 62-25 96-86 119-162" id="bn"/><path fill="#3aa6dd" d="M794-190h353V0H118v-190h395v-702H223v-190h571v892zM513-1277v-207h281v207H513" id="bo"/><path fill="#3aa6dd" d="M711 13c-250 0-386-99-385-349l2-556H161v-190h181l88-282h176v282h385v190H606v530c-10 130 45 186 174 184 91-2 176-11 255-27v186C933-1 833 13 711 13" id="bp"/><g id="s"><use transform="matrix(0.010850694444444444,0,0,0.010850694444444444,0,0)" xlink:href="#bk"/><use transform="matrix(0.010850694444444444,0,0,0.010850694444444444,13.335503472222221,0)" xlink:href="#bk"/><use transform="matrix(0.010850694444444444,0,0,0.010850694444444444,26.671006944444443,0)" xlink:href="#bn"/><use transform="matrix(0.010850694444444444,0,0,0.010850694444444444,40.006510416666664,0)" xlink:href="#bo"/><use transform="matrix(0.010850694444444444,0,0,0.010850694444444444,53.342013888888886,0)" xlink:href="#bp"/></g><path fill="#3aa6dd" d="M621-530c0 421 127 700 301 955H641C466 173 344-110 344-531s122-702 297-953h281c-174 254-301 534-301 954" id="bq"/><path fill="#3aa6dd" d="M885-531c0 421-122 704-297 956H307c174-255 301-534 301-955 0-420-127-700-301-954h281c175 251 297 532 297 953" id="br"/><g id="t"><use transform="matrix(0.010850694444444444,0,0,0.010850694444444444,0,0)" xlink:href="#bq"/><use transform="matrix(0.010850694444444444,0,0,0.010850694444444444,13.335503472222221,0)" xlink:href="#bk"/><use transform="matrix(0.010850694444444444,0,0,0.010850694444444444,26.671006944444443,0)" xlink:href="#bn"/><use transform="matrix(0.010850694444444444,0,0,0.010850694444444444,40.006510416666664,0)" xlink:href="#br"/></g><path fill="#3aa6dd" d="M427-171c3 195 2 397 2 596H148V-846c1-83-4-168-8-236h272c10 49 14 118 15 176h4c59-114 151-197 316-197 291 0 385 259 385 560 0 243-65 433-220 521-50 28-109 42-176 42-162-2-253-78-309-191zm69-661c-91 113-92 463-1 586 46 62 145 101 225 54 96-57 118-191 119-351 0-123-18-215-53-276-46-82-128-115-220-74-25 12-48 33-70 61" id="bs"/><path fill="#3aa6dd" d="M471 20c-247 0-336-169-336-415v-687h281v607c4 148 31 285 172 285 152 0 207-150 207-312v-580h281c4 359-9 736 8 1082H816c-7-63-11-146-12-215h-5C736-76 644 20 471 20" id="bt"/><g id="u"><use transform="matrix(0.010850694444444444,0,0,0.010850694444444444,0,0)" xlink:href="#bs"/><use transform="matrix(0.010850694444444444,0,0,0.010850694444444444,13.335503472222221,0)" xlink:href="#bt"/><use transform="matrix(0.010850694444444444,0,0,0.010850694444444444,26.671006944444443,0)" xlink:href="#bc"/><use transform="matrix(0.010850694444444444,0,0,0.010850694444444444,40.006510416666664,0)" xlink:href="#bd"/></g><path d="M117-194c89-4 53 116 60 194h-32v-121c0-31-8-49-39-48C34-167 62-67 57 0H25l-1-190h30c1 10-1 24 2 32 11-22 29-35 61-36" id="bu"/><path d="M141-36C126-15 110 5 73 4 37 3 15-17 15-53c-1-64 63-63 125-63 3-35-9-54-41-54-24 1-41 7-42 31l-33-3c5-37 33-52 76-52 45 0 72 20 72 64v82c-1 20 7 32 28 27v20c-31 9-61-2-59-35zM48-53c0 20 12 33 32 33 41-3 63-29 60-74-43 2-92-5-92 41" id="bv"/><path d="M210-169c-67 3-38 105-44 169h-31v-121c0-29-5-50-35-48C34-165 62-65 56 0H25l-1-190h30c1 10-1 24 2 32 10-44 99-50 107 0 11-21 27-35 58-36 85-2 47 119 55 194h-31v-121c0-29-5-49-35-48" id="bw"/><path d="M100-194c63 0 86 42 84 106H49c0 40 14 67 53 68 26 1 43-12 49-29l28 8c-11 28-37 45-77 45C44 4 14-33 15-96c1-61 26-98 85-98zm52 81c6-60-76-77-97-28-3 7-6 17-6 28h103" id="bx"/><g id="v"><use transform="matrix(0.05,0,0,0.05,0,0)" xlink:href="#bu"/><use transform="matrix(0.05,0,0,0.05,10,0)" xlink:href="#bv"/><use transform="matrix(0.05,0,0,0.05,20,0)" xlink:href="#bw"/><use transform="matrix(0.05,0,0,0.05,34.95,0)" xlink:href="#bx"/></g><path d="M135-143c-3-34-86-38-87 0 15 53 115 12 119 90S17 21 10-45l28-5c4 36 97 45 98 0-10-56-113-15-118-90-4-57 82-63 122-42 12 7 21 19 24 35" id="by"/><path d="M115-194c55 1 70 41 70 98S169 2 115 4C84 4 66-9 55-30l1 105H24l-1-265h31l2 30c10-21 28-34 59-34zm-8 174c40 0 45-34 45-75s-6-73-45-74c-42 0-51 32-51 76 0 43 10 73 51 73" id="bz"/><path d="M96-169c-40 0-48 33-48 73s9 75 48 75c24 0 41-14 43-38l32 2c-6 37-31 61-74 61-59 0-76-41-82-99-10-93 101-131 147-64 4 7 5 14 7 22l-32 3c-4-21-16-35-41-35" id="bA"/><path d="M24-231v-30h32v30H24zM24 0v-190h32V0H24" id="bB"/><g id="w"><use transform="matrix(0.05,0,0,0.05,0,0)" xlink:href="#by"/><use transform="matrix(0.05,0,0,0.05,9,0)" xlink:href="#bz"/><use transform="matrix(0.05,0,0,0.05,19,0)" xlink:href="#bx"/><use transform="matrix(0.05,0,0,0.05,29,0)" xlink:href="#bA"/><use transform="matrix(0.05,0,0,0.05,38,0)" xlink:href="#bB"/><use transform="matrix(0.05,0,0,0.05,41.95,0)" xlink:href="#bx"/><use transform="matrix(0.05,0,0,0.05,51.95,0)" xlink:href="#by"/></g><path d="M100-194c62-1 85 37 85 99 1 63-27 99-86 99S16-35 15-95c0-66 28-99 85-99zM99-20c44 1 53-31 53-75 0-43-8-75-51-75s-53 32-53 75 10 74 51 75" id="bC"/><path d="M114-163C36-179 61-72 57 0H25l-1-190h30c1 12-1 29 2 39 6-27 23-49 58-41v29" id="bD"/><path d="M177-190C167-65 218 103 67 71c-23-6-38-20-44-43l32-5c15 47 100 32 89-28v-30C133-14 115 1 83 1 29 1 15-40 15-95c0-56 16-97 71-98 29-1 48 16 59 35 1-10 0-23 2-32h30zM94-22c36 0 50-32 50-73 0-42-14-75-50-75-39 0-46 34-46 75s6 73 46 73" id="bE"/><path d="M9 0v-24l116-142H16v-24h144v24L44-24h123V0H9" id="bF"/><path d="M59-47c-2 24 18 29 38 22v24C64 9 27 4 27-40v-127H5v-23h24l9-43h21v43h35v23H59v120" id="bG"/><g id="x"><use transform="matrix(0.05,0,0,0.05,0,0)" xlink:href="#bC"/><use transform="matrix(0.05,0,0,0.05,10,0)" xlink:href="#bD"/><use transform="matrix(0.05,0,0,0.05,15.949999999999998,0)" xlink:href="#bE"/><use transform="matrix(0.05,0,0,0.05,25.950000000000003,0)" xlink:href="#bv"/><use transform="matrix(0.05,0,0,0.05,35.95,0)" xlink:href="#bu"/><use transform="matrix(0.05,0,0,0.05,45.95,0)" xlink:href="#bB"/><use transform="matrix(0.05,0,0,0.05,49.900000000000006,0)" xlink:href="#bF"/><use transform="matrix(0.05,0,0,0.05,58.900000000000006,0)" xlink:href="#bv"/><use transform="matrix(0.05,0,0,0.05,68.9,0)" xlink:href="#bG"/><use transform="matrix(0.05,0,0,0.05,73.9,0)" xlink:href="#bB"/><use transform="matrix(0.05,0,0,0.05,77.85000000000001,0)" xlink:href="#bC"/><use transform="matrix(0.05,0,0,0.05,87.85000000000001,0)" xlink:href="#bu"/></g><path d="M85-194c31 0 48 13 60 33l-1-100h32l1 261h-30c-2-10 0-23-3-31C134-8 116 4 85 4 32 4 16-35 15-94c0-66 23-100 70-100zm9 24c-40 0-46 34-46 75 0 40 6 74 45 74 42 0 51-32 51-76 0-42-9-74-50-73" id="bH"/><path d="M206 0h-36l-40-164L89 0H53L-1-190h32L70-26l43-164h34l41 164 42-164h31" id="bI"/><path d="M24 0v-261h32V0H24" id="bJ"/><g id="y"><use transform="matrix(0.05,0,0,0.05,0,0)" xlink:href="#bH"/><use transform="matrix(0.05,0,0,0.05,10,0)" xlink:href="#bC"/><use transform="matrix(0.05,0,0,0.05,20,0)" xlink:href="#bI"/><use transform="matrix(0.05,0,0,0.05,32.95,0)" xlink:href="#bu"/><use transform="matrix(0.05,0,0,0.05,42.95,0)" xlink:href="#bJ"/><use transform="matrix(0.05,0,0,0.05,46.900000000000006,0)" xlink:href="#bC"/><use transform="matrix(0.05,0,0,0.05,56.900000000000006,0)" xlink:href="#bv"/><use transform="matrix(0.05,0,0,0.05,66.9,0)" xlink:href="#bH"/><use transform="matrix(0.05,0,0,0.05,76.9,0)" xlink:href="#bx"/><use transform="matrix(0.05,0,0,0.05,86.9,0)" xlink:href="#bD"/></g><g id="z"><use transform="matrix(0.05,0,0,0.05,0,0)" xlink:href="#bA"/><use transform="matrix(0.05,0,0,0.05,9,0)" xlink:href="#bC"/><use transform="matrix(0.05,0,0,0.05,19,0)" xlink:href="#bw"/><use transform="matrix(0.05,0,0,0.05,33.95,0)" xlink:href="#bz"/><use transform="matrix(0.05,0,0,0.05,43.95,0)" xlink:href="#bC"/><use transform="matrix(0.05,0,0,0.05,53.95,0)" xlink:href="#bu"/><use transform="matrix(0.05,0,0,0.05,63.95,0)" xlink:href="#bx"/><use transform="matrix(0.05,0,0,0.05,73.95,0)" xlink:href="#bu"/><use transform="matrix(0.05,0,0,0.05,83.95,0)" xlink:href="#bG"/></g><path d="M101-234c-31-9-42 10-38 44h38v23H63V0H32v-167H5v-23h27c-7-52 17-82 69-68v24" id="bK"/><path d="M16-82v-28h88v28H16" id="bL"/><path d="M143 0L79-87 56-68V0H24v-261h32v163l83-92h37l-77 82L181 0h-38" id="bM"/><path d="M179-190L93 31C79 59 56 82 12 73V49c39 6 53-20 64-50L1-190h34L92-34l54-156h33" id="bN"/><path d="M27 0v-27h64v-190l-56 39v-29l58-41h29v221h61V0H27" id="bO"/><g id="A"><use transform="matrix(0.05,0,0,0.05,0,0)" xlink:href="#bD"/><use transform="matrix(0.05,0,0,0.05,5.95,0)" xlink:href="#bx"/><use transform="matrix(0.05,0,0,0.05,15.949999999999998,0)" xlink:href="#bK"/><use transform="matrix(0.05,0,0,0.05,20.95,0)" xlink:href="#bx"/><use transform="matrix(0.05,0,0,0.05,30.950000000000003,0)" xlink:href="#bD"/><use transform="matrix(0.05,0,0,0.05,36.9,0)" xlink:href="#bx"/><use transform="matrix(0.05,0,0,0.05,46.9,0)" xlink:href="#bu"/><use transform="matrix(0.05,0,0,0.05,56.900000000000006,0)" xlink:href="#bA"/><use transform="matrix(0.05,0,0,0.05,65.9,0)" xlink:href="#bx"/><use transform="matrix(0.05,0,0,0.05,75.9,0)" xlink:href="#bL"/><use transform="matrix(0.05,0,0,0.05,81.85000000000001,0)" xlink:href="#bM"/><use transform="matrix(0.05,0,0,0.05,90.85000000000001,0)" xlink:href="#bx"/><use transform="matrix(0.05,0,0,0.05,100.85000000000001,0)" xlink:href="#bN"/><use transform="matrix(0.05,0,0,0.05,109.85000000000001,0)" xlink:href="#bO"/></g><path d="M106-169C34-169 62-67 57 0H25v-261h32l-1 103c12-21 28-36 61-36 89 0 53 116 60 194h-32v-121c2-32-8-49-39-48" id="bP"/><path d="M84 4C-5 8 30-112 23-190h32v120c0 31 7 50 39 49 72-2 45-101 50-169h31l1 190h-30c-1-10 1-25-2-33-11 22-28 36-60 37" id="bQ"/><g id="B"><use transform="matrix(0.05,0,0,0.05,0,0)" xlink:href="#bP"/><use transform="matrix(0.05,0,0,0.05,10,0)" xlink:href="#bQ"/><use transform="matrix(0.05,0,0,0.05,20,0)" xlink:href="#bw"/><use transform="matrix(0.05,0,0,0.05,34.95,0)" xlink:href="#bv"/><use transform="matrix(0.05,0,0,0.05,44.95,0)" xlink:href="#bu"/></g><g id="C"><use transform="matrix(0.05,0,0,0.05,0,0)" xlink:href="#bC"/><use transform="matrix(0.05,0,0,0.05,10,0)" xlink:href="#bD"/><use transform="matrix(0.05,0,0,0.05,15.949999999999998,0)" xlink:href="#bE"/></g><g id="D"><use transform="matrix(0.05,0,0,0.05,0,0)" xlink:href="#bu"/><use transform="matrix(0.05,0,0,0.05,10,0)" xlink:href="#bv"/><use transform="matrix(0.05,0,0,0.05,20,0)" xlink:href="#bw"/><use transform="matrix(0.05,0,0,0.05,34.95,0)" xlink:href="#bx"/></g><g id="E"><use transform="matrix(0.05,0,0,0.05,0,0)" xlink:href="#bQ"/><use transform="matrix(0.05,0,0,0.05,10,0)" xlink:href="#by"/><use transform="matrix(0.05,0,0,0.05,19,0)" xlink:href="#bx"/><use transform="matrix(0.05,0,0,0.05,29,0)" xlink:href="#bD"/><use transform="matrix(0.05,0,0,0.05,34.95,0)" xlink:href="#bu"/><use transform="matrix(0.05,0,0,0.05,44.95,0)" xlink:href="#bv"/><use transform="matrix(0.05,0,0,0.05,54.95,0)" xlink:href="#bw"/><use transform="matrix(0.05,0,0,0.05,69.9,0)" xlink:href="#bx"/></g><path d="M26 75v-336h71v23H56V52h41v23H26" id="bR"/><g id="F"><use transform="matrix(0.05,0,0,0.05,0,0)" xlink:href="#bR"/><use transform="matrix(0.05,0,0,0.05,5,0)" xlink:href="#bz"/><use transform="matrix(0.05,0,0,0.05,15,0)" xlink:href="#bD"/><use transform="matrix(0.05,0,0,0.05,20.95,0)" xlink:href="#bB"/><use transform="matrix(0.05,0,0,0.05,24.9,0)" xlink:href="#bw"/><use transform="matrix(0.05,0,0,0.05,39.85,0)" xlink:href="#bv"/><use transform="matrix(0.05,0,0,0.05,49.85,0)" xlink:href="#bD"/><use transform="matrix(0.05,0,0,0.05,55.800000000000004,0)" xlink:href="#bN"/></g><use transform="matrix(0.05,0,0,0.05,0,0)" xlink:href="#bL" id="G"/><path d="M3 75V52h41v-290H3v-23h71V75H3" id="bS"/><g id="H"><use transform="matrix(0.05,0,0,0.05,0,0)" xlink:href="#bx"/><use transform="matrix(0.05,0,0,0.05,10,0)" xlink:href="#by"/><use transform="matrix(0.05,0,0,0.05,19,0)" xlink:href="#bG"/><use transform="matrix(0.05,0,0,0.05,24,0)" xlink:href="#bS"/></g><path d="M101-251c82-7 93 87 43 132L82-64C71-53 59-42 53-27h129V0H18c2-99 128-94 128-182 0-28-16-43-45-43s-46 15-49 41l-32-3c6-41 34-60 81-64" id="bT"/><g id="I"><use transform="matrix(0.05,0,0,0.05,0,0)" xlink:href="#bD"/><use transform="matrix(0.05,0,0,0.05,5.95,0)" xlink:href="#bx"/><use transform="matrix(0.05,0,0,0.05,15.949999999999998,0)" xlink:href="#bK"/><use transform="matrix(0.05,0,0,0.05,20.95,0)" xlink:href="#bx"/><use transform="matrix(0.05,0,0,0.05,30.950000000000003,0)" xlink:href="#bD"/><use transform="matrix(0.05,0,0,0.05,36.9,0)" xlink:href="#bx"/><use transform="matrix(0.05,0,0,0.05,46.9,0)" xlink:href="#bu"/><use transform="matrix(0.05,0,0,0.05,56.900000000000006,0)" xlink:href="#bA"/><use transform="matrix(0.05,0,0,0.05,65.9,0)" xlink:href="#bx"/><use transform="matrix(0.05,0,0,0.05,75.9,0)" xlink:href="#bL"/><use transform="matrix(0.05,0,0,0.05,81.85000000000001,0)" xlink:href="#bM"/><use transform="matrix(0.05,0,0,0.05,90.85000000000001,0)" xlink:href="#bx"/><use transform="matrix(0.05,0,0,0.05,100.85000000000001,0)" xlink:href="#bN"/><use transform="matrix(0.05,0,0,0.05,109.85000000000001,0)" xlink:href="#bT"/></g><g id="J"><use transform="matrix(0.05,0,0,0.05,0,0)" xlink:href="#bw"/><use transform="matrix(0.05,0,0,0.05,14.950000000000001,0)" xlink:href="#bC"/><use transform="matrix(0.05,0,0,0.05,24.950000000000003,0)" xlink:href="#bQ"/><use transform="matrix(0.05,0,0,0.05,34.95,0)" xlink:href="#by"/><use transform="matrix(0.05,0,0,0.05,43.95,0)" xlink:href="#bx"/></g><g id="K"><use transform="matrix(0.05,0,0,0.05,0,0)" xlink:href="#bR"/><use transform="matrix(0.05,0,0,0.05,5,0)" xlink:href="#bz"/><use transform="matrix(0.05,0,0,0.05,15,0)" xlink:href="#bD"/><use transform="matrix(0.05,0,0,0.05,20.95,0)" xlink:href="#bB"/><use transform="matrix(0.05,0,0,0.05,24.9,0)" xlink:href="#bw"/><use transform="matrix(0.05,0,0,0.05,39.85,0)" xlink:href="#bv"/><use transform="matrix(0.05,0,0,0.05,49.85,0)" xlink:href="#bD"/><use transform="matrix(0.05,0,0,0.05,55.800000000000004,0)" xlink:href="#bN"/><use transform="matrix(0.05,0,0,0.05,64.80000000000001,0)" xlink:href="#bS"/></g><path fill="#ef8d22" d="M622-916c-112 2-200 14-200 111 0 90 89 101 168 121 234 58 514 77 514 368C1104-4 751 54 434 5 267-21 161-112 121-270l247-37c24 111 113 145 252 141 114-3 226-12 226-124 0-101-103-113-192-134-225-54-490-76-490-351 0-247 201-328 458-328 245 0 413 88 457 292l-249 26c-16-98-92-133-208-131" id="bU"/><path fill="#ef8d22" d="M424-1484c-2 206 5 424-8 618h4c67-145 160-234 348-236 251-3 335 167 336 416V0H824v-621c0-150-23-276-173-270-163 7-227 142-227 312V0H143v-1484h281" id="bV"/><path fill="#ef8d22" d="M1113-274C1038-96 884 20 626 20c-352 0-526-209-526-566 0-358 185-556 530-556 358 0 496 251 499 615H395c5 180 68 319 245 319 102 0 186-45 208-129zM857-663c-6-177-128-307-315-247-94 30-141 121-145 247h460" id="bW"/><path fill="#ef8d22" d="M794-190h353V0H118v-190h395v-1104H223v-190h571v1294" id="bX"/><path fill="#ef8d22" d="M101-125v-227l832-324-832-325v-228l1027 391v322" id="bY"/><g id="L"><use transform="matrix(0.010850694444444444,0,0,0.010850694444444444,0,0)" xlink:href="#bU"/><use transform="matrix(0.010850694444444444,0,0,0.010850694444444444,13.335503472222221,0)" xlink:href="#bV"/><use transform="matrix(0.010850694444444444,0,0,0.010850694444444444,26.671006944444443,0)" xlink:href="#bW"/><use transform="matrix(0.010850694444444444,0,0,0.010850694444444444,40.006510416666664,0)" xlink:href="#bX"/><use transform="matrix(0.010850694444444444,0,0,0.010850694444444444,53.342013888888886,0)" xlink:href="#bX"/><use transform="matrix(0.010850694444444444,0,0,0.010850694444444444,66.67751736111111,0)" xlink:href="#bY"/></g><path fill="#ef8d22" d="M875-1102c70 0 148 7 206 17v237c-110-17-267-37-359 15-123 69-192 207-192 395V0H250c-10-367 32-789-52-1082h271c19 69 36 149 46 228h4c52-151 151-250 356-248" id="bZ"/><path fill="#ef8d22" d="M844-1321c-130 0-195 53-191 182v57h443v190H653V0H373v-892H117v-190h256v-83c5-247 162-348 422-349 120-1 232 13 327 28v184c-84-10-183-19-278-19" id="ca"/><path fill="#ef8d22" d="M1109-360C1066-122 902 20 624 20c-347 0-514-209-514-555 0-353 168-567 518-567 270 0 425 136 473 361l-283 14c-16-106-75-183-196-182-75 0-130 31-165 93s-52 152-52 270c0 249 74 374 221 374 120 0 188-82 201-201" id="cb"/><path fill="#ef8d22" d="M324-409v-244h580v244H324" id="cc"/><path fill="#ef8d22" d="M934-1102c199 0 220 177 220 381V0H926c-2-260 10-533-4-785-4-72-14-138-83-138-34 0-61 27-81 81s-29 134-29 241V0H501c-2-260 9-533-5-785-4-72-13-138-82-138-46 0-65 47-80 93-21 67-30 155-30 248V0H75c-3-360 6-732-6-1082h209c6 50 3 123 8 175 36-100 83-195 216-195 135 0 166 79 196 196 42-105 93-196 236-196" id="cd"/><path fill="#ef8d22" d="M768-1103c247 0 336 167 336 416V0H824v-619c-3-164-24-273-171-273-164 0-229 142-229 312V0H143c-4-359 9-736-8-1082h268c7 63 12 146 13 215h4c67-145 160-236 348-236" id="ce"/><path fill="#ef8d22" d="M471 20c-247 0-336-169-336-415v-687h281v607c4 148 31 285 172 285 152 0 207-150 207-312v-580h281c4 359-9 736 8 1082H816c-7-63-11-146-12-215h-5C736-76 644 20 471 20" id="cf"/><g id="M"><use transform="matrix(0.010850694444444444,0,0,0.010850694444444444,0,0)" xlink:href="#bZ"/><use transform="matrix(0.010850694444444444,0,0,0.010850694444444444,13.335503472222221,0)" xlink:href="#bW"/><use transform="matrix(0.010850694444444444,0,0,0.010850694444444444,26.671006944444443,0)" xlink:href="#ca"/><use transform="matrix(0.010850694444444444,0,0,0.010850694444444444,40.006510416666664,0)" xlink:href="#cb"/><use transform="matrix(0.010850694444444444,0,0,0.010850694444444444,53.342013888888886,0)" xlink:href="#bV"/><use transform="matrix(0.010850694444444444,0,0,0.010850694444444444,66.67751736111111,0)" xlink:href="#bW"/><use transform="matrix(0.010850694444444444,0,0,0.010850694444444444,80.01302083333334,0)" xlink:href="#ca"/><use transform="matrix(0.010850694444444444,0,0,0.010850694444444444,93.34852430555557,0)" xlink:href="#cc"/><use transform="matrix(0.010850694444444444,0,0,0.010850694444444444,106.6840277777778,0)" xlink:href="#cd"/><use transform="matrix(0.010850694444444444,0,0,0.010850694444444444,120.01953125000003,0)" xlink:href="#bW"/><use transform="matrix(0.010850694444444444,0,0,0.010850694444444444,133.35503472222226,0)" xlink:href="#ce"/><use transform="matrix(0.010850694444444444,0,0,0.010850694444444444,146.69053819444449,0)" xlink:href="#cf"/></g><path fill="#b391b5" d="M622-916c-112 2-200 14-200 111 0 90 89 101 168 121 234 58 514 77 514 368C1104-4 751 54 434 5 267-21 161-112 121-270l247-37c24 111 113 145 252 141 114-3 226-12 226-124 0-101-103-113-192-134-225-54-490-76-490-351 0-247 201-328 458-328 245 0 413 88 457 292l-249 26c-16-98-92-133-208-131" id="cg"/><path fill="#b391b5" d="M424-1484c-2 206 5 424-8 618h4c67-145 160-234 348-236 251-3 335 167 336 416V0H824v-621c0-150-23-276-173-270-163 7-227 142-227 312V0H143v-1484h281" id="ch"/><path fill="#b391b5" d="M1113-274C1038-96 884 20 626 20c-352 0-526-209-526-566 0-358 185-556 530-556 358 0 496 251 499 615H395c5 180 68 319 245 319 102 0 186-45 208-129zM857-663c-6-177-128-307-315-247-94 30-141 121-145 247h460" id="ci"/><path fill="#b391b5" d="M794-190h353V0H118v-190h395v-1104H223v-190h571v1294" id="cj"/><path fill="#b391b5" d="M101-125v-227l832-324-832-325v-228l1027 391v322" id="ck"/><g id="N"><use transform="matrix(0.010850694444444444,0,0,0.010850694444444444,0,0)" xlink:href="#cg"/><use transform="matrix(0.010850694444444444,0,0,0.010850694444444444,13.335503472222221,0)" xlink:href="#ch"/><use transform="matrix(0.010850694444444444,0,0,0.010850694444444444,26.671006944444443,0)" xlink:href="#ci"/><use transform="matrix(0.010850694444444444,0,0,0.010850694444444444,40.006510416666664,0)" xlink:href="#cj"/><use transform="matrix(0.010850694444444444,0,0,0.010850694444444444,53.342013888888886,0)" xlink:href="#cj"/><use transform="matrix(0.010850694444444444,0,0,0.010850694444444444,66.67751736111111,0)" xlink:href="#ck"/></g><path fill="#b391b5" d="M875-1102c70 0 148 7 206 17v237c-110-17-267-37-359 15-123 69-192 207-192 395V0H250c-10-367 32-789-52-1082h271c19 69 36 149 46 228h4c52-151 151-250 356-248" id="cl"/><path fill="#b391b5" d="M844-1321c-130 0-195 53-191 182v57h443v190H653V0H373v-892H117v-190h256v-83c5-247 162-348 422-349 120-1 232 13 327 28v184c-84-10-183-19-278-19" id="cm"/><path fill="#b391b5" d="M1109-360C1066-122 902 20 624 20c-347 0-514-209-514-555 0-353 168-567 518-567 270 0 425 136 473 361l-283 14c-16-106-75-183-196-182-75 0-130 31-165 93s-52 152-52 270c0 249 74 374 221 374 120 0 188-82 201-201" id="cn"/><path fill="#b391b5" d="M324-409v-244h580v244H324" id="co"/><path fill="#b391b5" d="M616-1102c361 0 521 202 521 560 0 354-171 562-527 562C259 20 92-192 92-542c0-351 169-560 524-560zm-9 930c200-2 236-165 236-370 0-199-27-367-223-367-195 0-233 146-233 367 0 129 18 223 55 282s92 88 165 88" id="cp"/><path fill="#b391b5" d="M864 0L575-490l-121 84V0H173v-1484h281v850l386-448h302L762-660 1171 0H864" id="cq"/><g id="O"><use transform="matrix(0.010850694444444444,0,0,0.010850694444444444,0,0)" xlink:href="#cl"/><use transform="matrix(0.010850694444444444,0,0,0.010850694444444444,13.335503472222221,0)" xlink:href="#ci"/><use transform="matrix(0.010850694444444444,0,0,0.010850694444444444,26.671006944444443,0)" xlink:href="#cm"/><use transform="matrix(0.010850694444444444,0,0,0.010850694444444444,40.006510416666664,0)" xlink:href="#cn"/><use transform="matrix(0.010850694444444444,0,0,0.010850694444444444,53.342013888888886,0)" xlink:href="#ch"/><use transform="matrix(0.010850694444444444,0,0,0.010850694444444444,66.67751736111111,0)" xlink:href="#ci"/><use transform="matrix(0.010850694444444444,0,0,0.010850694444444444,80.01302083333334,0)" xlink:href="#cm"/><use transform="matrix(0.010850694444444444,0,0,0.010850694444444444,93.34852430555557,0)" xlink:href="#co"/><use transform="matrix(0.010850694444444444,0,0,0.010850694444444444,106.6840277777778,0)" xlink:href="#cn"/><use transform="matrix(0.010850694444444444,0,0,0.010850694444444444,120.01953125000003,0)" xlink:href="#cp"/><use transform="matrix(0.010850694444444444,0,0,0.010850694444444444,133.35503472222226,0)" xlink:href="#cp"/><use transform="matrix(0.010850694444444444,0,0,0.010850694444444444,146.69053819444449,0)" xlink:href="#cq"/></g><path fill="#b391b5" d="M768-1103c247 0 336 167 336 416V0H824v-619c-3-164-24-273-171-273-164 0-229 142-229 312V0H143c-4-359 9-736-8-1082h268c7 63 12 146 13 215h4c67-145 160-236 348-236" id="cr"/><path fill="#b391b5" d="M1028 0H784c-56-191-119-378-170-573C562-377 495-191 437 0H194L11-1082h228c32 239 67 472 95 714 4 40 7 80 7 119 53-195 119-378 177-568h193c56 190 120 371 169 568-1-79 11-158 21-226l91-607h226" id="cs"/><g id="P"><use transform="matrix(0.010850694444444444,0,0,0.010850694444444444,0,0)" xlink:href="#co"/><use transform="matrix(0.010850694444444444,0,0,0.010850694444444444,13.335503472222221,0)" xlink:href="#co"/><use transform="matrix(0.010850694444444444,0,0,0.010850694444444444,26.671006944444443,0)" xlink:href="#cr"/><use transform="matrix(0.010850694444444444,0,0,0.010850694444444444,40.006510416666664,0)" xlink:href="#ci"/><use transform="matrix(0.010850694444444444,0,0,0.010850694444444444,53.342013888888886,0)" xlink:href="#cs"/></g><path fill="#b391b5" d="M621-530c0 421 127 700 301 955H641C466 173 344-110 344-531s122-702 297-953h281c-174 254-301 534-301 954" id="ct"/><path fill="#b391b5" d="M885-531c0 421-122 704-297 956H307c174-255 301-534 301-955 0-420-127-700-301-954h281c175 251 297 532 297 953" id="cu"/><g id="Q"><use transform="matrix(0.010850694444444444,0,0,0.010850694444444444,0,0)" xlink:href="#ct"/><use transform="matrix(0.010850694444444444,0,0,0.010850694444444444,13.335503472222221,0)" xlink:href="#co"/><use transform="matrix(0.010850694444444444,0,0,0.010850694444444444,26.671006944444443,0)" xlink:href="#cr"/><use transform="matrix(0.010850694444444444,0,0,0.010850694444444444,40.006510416666664,0)" xlink:href="#cu"/></g><path fill="#b391b5" d="M470 0v-305h289V0H470" id="cv"/><path fill="#b391b5" d="M143 212c82 12 185 12 233-31 50-45 83-117 110-192L38-1082h297c100 284 211 557 291 861 72-305 176-578 270-861h294L742 57c-80 192-156 368-417 368-60 0-131-4-182-13V212" id="cw"/><path fill="#b391b5" d="M775-193C708-75 621 20 439 20 226 20 106-93 106-306c0-251 170-341 417-346l223-4c4-143-12-264-148-264-103 0-141 58-150 153l-293-14c37-219 194-321 455-321 263 0 418 130 417 390v392c1 84 5 161 89 160 21 0 42-2 62-6v152c-57 15-108 27-180 26-145 0-202-73-217-205h-6zm-256 17c168 0 234-139 227-325-166 4-347-25-347 173 0 94 33 152 120 152" id="cx"/><path fill="#b391b5" d="M934-1102c199 0 220 177 220 381V0H926c-2-260 10-533-4-785-4-72-14-138-83-138-34 0-61 27-81 81s-29 134-29 241V0H501c-2-260 9-533-5-785-4-72-13-138-82-138-46 0-65 47-80 93-21 67-30 155-30 248V0H75c-3-360 6-732-6-1082h209c6 50 3 123 8 175 36-100 83-195 216-195 135 0 166 79 196 196 42-105 93-196 236-196" id="cy"/><g id="R"><use transform="matrix(0.010850694444444444,0,0,0.010850694444444444,0,0)" xlink:href="#cr"/><use transform="matrix(0.010850694444444444,0,0,0.010850694444444444,13.335503472222221,0)" xlink:href="#ci"/><use transform="matrix(0.010850694444444444,0,0,0.010850694444444444,26.671006944444443,0)" xlink:href="#cs"/><use transform="matrix(0.010850694444444444,0,0,0.010850694444444444,40.006510416666664,0)" xlink:href="#cv"/><use transform="matrix(0.010850694444444444,0,0,0.010850694444444444,53.342013888888886,0)" xlink:href="#cw"/><use transform="matrix(0.010850694444444444,0,0,0.010850694444444444,66.67751736111111,0)" xlink:href="#cx"/><use transform="matrix(0.010850694444444444,0,0,0.010850694444444444,80.01302083333334,0)" xlink:href="#cy"/><use transform="matrix(0.010850694444444444,0,0,0.010850694444444444,93.34852430555557,0)" xlink:href="#cj"/></g><path fill="#c92d39" d="M622-916c-112 2-200 14-200 111 0 90 89 101 168 121 234 58 514 77 514 368C1104-4 751 54 434 5 267-21 161-112 121-270l247-37c24 111 113 145 252 141 114-3 226-12 226-124 0-101-103-113-192-134-225-54-490-76-490-351 0-247 201-328 458-328 245 0 413 88 457 292l-249 26c-16-98-92-133-208-131" id="cz"/><path fill="#c92d39" d="M424-1484c-2 206 5 424-8 618h4c67-145 160-234 348-236 251-3 335 167 336 416V0H824v-621c0-150-23-276-173-270-163 7-227 142-227 312V0H143v-1484h281" id="cA"/><path fill="#c92d39" d="M1113-274C1038-96 884 20 626 20c-352 0-526-209-526-566 0-358 185-556 530-556 358 0 496 251 499 615H395c5 180 68 319 245 319 102 0 186-45 208-129zM857-663c-6-177-128-307-315-247-94 30-141 121-145 247h460" id="cB"/><path fill="#c92d39" d="M794-190h353V0H118v-190h395v-1104H223v-190h571v1294" id="cC"/><path fill="#c92d39" d="M101-125v-227l832-324-832-325v-228l1027 391v322" id="cD"/><g id="S"><use transform="matrix(0.010850694444444444,0,0,0.010850694444444444,0,0)" xlink:href="#cz"/><use transform="matrix(0.010850694444444444,0,0,0.010850694444444444,13.335503472222221,0)" xlink:href="#cA"/><use transform="matrix(0.010850694444444444,0,0,0.010850694444444444,26.671006944444443,0)" xlink:href="#cB"/><use transform="matrix(0.010850694444444444,0,0,0.010850694444444444,40.006510416666664,0)" xlink:href="#cC"/><use transform="matrix(0.010850694444444444,0,0,0.010850694444444444,53.342013888888886,0)" xlink:href="#cC"/><use transform="matrix(0.010850694444444444,0,0,0.010850694444444444,66.67751736111111,0)" xlink:href="#cD"/></g><path fill="#c92d39" d="M875-1102c70 0 148 7 206 17v237c-110-17-267-37-359 15-123 69-192 207-192 395V0H250c-10-367 32-789-52-1082h271c19 69 36 149 46 228h4c52-151 151-250 356-248" id="cE"/><path fill="#c92d39" d="M844-1321c-130 0-195 53-191 182v57h443v190H653V0H373v-892H117v-190h256v-83c5-247 162-348 422-349 120-1 232 13 327 28v184c-84-10-183-19-278-19" id="cF"/><path fill="#c92d39" d="M1109-360C1066-122 902 20 624 20c-347 0-514-209-514-555 0-353 168-567 518-567 270 0 425 136 473 361l-283 14c-16-106-75-183-196-182-75 0-130 31-165 93s-52 152-52 270c0 249 74 374 221 374 120 0 188-82 201-201" id="cG"/><path fill="#c92d39" d="M324-409v-244h580v244H324" id="cH"/><path fill="#c92d39" d="M616-1102c361 0 521 202 521 560 0 354-171 562-527 562C259 20 92-192 92-542c0-351 169-560 524-560zm-9 930c200-2 236-165 236-370 0-199-27-367-223-367-195 0-233 146-233 367 0 129 18 223 55 282s92 88 165 88" id="cI"/><path fill="#c92d39" d="M864 0L575-490l-121 84V0H173v-1484h281v850l386-448h302L762-660 1171 0H864" id="cJ"/><g id="T"><use transform="matrix(0.010850694444444444,0,0,0.010850694444444444,0,0)" xlink:href="#cE"/><use transform="matrix(0.010850694444444444,0,0,0.010850694444444444,13.335503472222221,0)" xlink:href="#cB"/><use transform="matrix(0.010850694444444444,0,0,0.010850694444444444,26.671006944444443,0)" xlink:href="#cF"/><use transform="matrix(0.010850694444444444,0,0,0.010850694444444444,40.006510416666664,0)" xlink:href="#cG"/><use transform="matrix(0.010850694444444444,0,0,0.010850694444444444,53.342013888888886,0)" xlink:href="#cA"/><use transform="matrix(0.010850694444444444,0,0,0.010850694444444444,66.67751736111111,0)" xlink:href="#cB"/><use transform="matrix(0.010850694444444444,0,0,0.010850694444444444,80.01302083333334,0)" xlink:href="#cF"/><use transform="matrix(0.010850694444444444,0,0,0.010850694444444444,93.34852430555557,0)" xlink:href="#cH"/><use transform="matrix(0.010850694444444444,0,0,0.010850694444444444,106.6840277777778,0)" xlink:href="#cG"/><use transform="matrix(0.010850694444444444,0,0,0.010850694444444444,120.01953125000003,0)" xlink:href="#cI"/><use transform="matrix(0.010850694444444444,0,0,0.010850694444444444,133.35503472222226,0)" xlink:href="#cI"/><use transform="matrix(0.010850694444444444,0,0,0.010850694444444444,146.69053819444449,0)" xlink:href="#cJ"/></g><path fill="#c92d39" d="M1108-33c-3 314-178 467-492 467-243 0-400-94-447-291l281-33c17 79 82 141 174 141 176 0 212-155 205-347-2-40 5-80 0-115C773-85 665-12 501-12c-288 0-377-242-377-538 0-242 65-426 223-510 50-26 108-39 175-39 160 0 253 78 307 191h5c1-58 5-125 14-174h266c-12 335-3 703-6 1049zM811-384c25-82 27-259 1-342-30-99-77-180-190-180-172 0-205 171-205 356 0 116 18 202 54 258 48 76 129 107 221 70 62-25 96-86 119-162" id="cK"/><path fill="#c92d39" d="M794-190h353V0H118v-190h395v-702H223v-190h571v892zM513-1277v-207h281v207H513" id="cL"/><path fill="#c92d39" d="M711 13c-250 0-386-99-385-349l2-556H161v-190h181l88-282h176v282h385v190H606v530c-10 130 45 186 174 184 91-2 176-11 255-27v186C933-1 833 13 711 13" id="cM"/><g id="U"><use transform="matrix(0.010850694444444444,0,0,0.010850694444444444,0,0)" xlink:href="#cH"/><use transform="matrix(0.010850694444444444,0,0,0.010850694444444444,13.335503472222221,0)" xlink:href="#cH"/><use transform="matrix(0.010850694444444444,0,0,0.010850694444444444,26.671006944444443,0)" xlink:href="#cK"/><use transform="matrix(0.010850694444444444,0,0,0.010850694444444444,40.006510416666664,0)" xlink:href="#cL"/><use transform="matrix(0.010850694444444444,0,0,0.010850694444444444,53.342013888888886,0)" xlink:href="#cM"/></g><path fill="#c92d39" d="M621-530c0 421 127 700 301 955H641C466 173 344-110 344-531s122-702 297-953h281c-174 254-301 534-301 954" id="cN"/><path fill="#c92d39" d="M885-531c0 421-122 704-297 956H307c174-255 301-534 301-955 0-420-127-700-301-954h281c175 251 297 532 297 953" id="cO"/><g id="V"><use transform="matrix(0.010850694444444444,0,0,0.010850694444444444,0,0)" xlink:href="#cN"/><use transform="matrix(0.010850694444444444,0,0,0.010850694444444444,13.335503472222221,0)" xlink:href="#cH"/><use transform="matrix(0.010850694444444444,0,0,0.010850694444444444,26.671006944444443,0)" xlink:href="#cK"/><use transform="matrix(0.010850694444444444,0,0,0.010850694444444444,40.006510416666664,0)" xlink:href="#cO"/></g><path fill="#c92d39" d="M934-1102c199 0 220 177 220 381V0H926c-2-260 10-533-4-785-4-72-14-138-83-138-34 0-61 27-81 81s-29 134-29 241V0H501c-2-260 9-533-5-785-4-72-13-138-82-138-46 0-65 47-80 93-21 67-30 155-30 248V0H75c-3-360 6-732-6-1082h209c6 50 3 123 8 175 36-100 83-195 216-195 135 0 166 79 196 196 42-105 93-196 236-196" id="cP"/><g id="W"><use transform="matrix(0.010850694444444444,0,0,0.010850694444444444,0,0)" xlink:href="#cG"/><use transform="matrix(0.010850694444444444,0,0,0.010850694444444444,13.335503472222221,0)" xlink:href="#cI"/><use transform="matrix(0.010850694444444444,0,0,0.010850694444444444,26.671006944444443,0)" xlink:href="#cP"/><use transform="matrix(0.010850694444444444,0,0,0.010850694444444444,40.006510416666664,0)" xlink:href="#cP"/><use transform="matrix(0.010850694444444444,0,0,0.010850694444444444,53.342013888888886,0)" xlink:href="#cL"/><use transform="matrix(0.010850694444444444,0,0,0.010850694444444444,66.67751736111111,0)" xlink:href="#cM"/></g></defs></g></svg>